<?xml version="1.0" encoding="utf-8" standalone="no"?>
<!DOCTYPE svg PUBLIC "-//W3C//DTD SVG 1.1//EN"
  "http://www.w3.org/Graphics/SVG/1.1/DTD/svg11.dtd">
<!-- Created with matplotlib (https://matplotlib.org/) -->
<svg height="424.8pt" version="1.1" viewBox="0 0 568.8 424.8" width="568.8pt" xmlns="http://www.w3.org/2000/svg" xmlns:xlink="http://www.w3.org/1999/xlink">
 <defs>
  <style type="text/css">
*{stroke-linecap:butt;stroke-linejoin:round;}
  </style>
 </defs>
 <g id="figure_1">
  <g id="patch_1">
   <path d="M 0 424.8 
L 568.8 424.8 
L 568.8 0 
L 0 0 
z
" style="fill:#ffffff;"/>
  </g>
  <g id="axes_1">
   <g id="patch_2">
    <path d="M 42.055367 189.821535 
L 561.6 189.821535 
L 561.6 7.2 
L 42.055367 7.2 
z
" style="fill:#ffffff;"/>
   </g>
   <g id="matplotlib.axis_1">
    <g id="xtick_1">
     <g id="line2d_1">
      <defs>
       <path d="M 0 0 
L 0 3.5 
" id="mf61be45004" style="stroke:#000000;stroke-width:0.8;"/>
      </defs>
      <g>
       <use style="stroke:#000000;stroke-width:0.8;" x="42.055367" xlink:href="#mf61be45004" y="189.821535"/>
      </g>
     </g>
    </g>
    <g id="xtick_2">
     <g id="line2d_2">
      <g>
       <use style="stroke:#000000;stroke-width:0.8;" x="154.478586" xlink:href="#mf61be45004" y="189.821535"/>
      </g>
     </g>
    </g>
    <g id="xtick_3">
     <g id="line2d_3">
      <g>
       <use style="stroke:#000000;stroke-width:0.8;" x="266.901805" xlink:href="#mf61be45004" y="189.821535"/>
      </g>
     </g>
    </g>
    <g id="xtick_4">
     <g id="line2d_4">
      <g>
       <use style="stroke:#000000;stroke-width:0.8;" x="379.325024" xlink:href="#mf61be45004" y="189.821535"/>
      </g>
     </g>
    </g>
    <g id="xtick_5">
     <g id="line2d_5">
      <g>
       <use style="stroke:#000000;stroke-width:0.8;" x="491.748243" xlink:href="#mf61be45004" y="189.821535"/>
      </g>
     </g>
    </g>
   </g>
   <g id="matplotlib.axis_2">
    <g id="ytick_1">
     <g id="line2d_6">
      <defs>
       <path d="M 0 0 
L -3.5 0 
" id="m2b39912df5" style="stroke:#000000;stroke-width:0.8;"/>
      </defs>
      <g>
       <use style="stroke:#000000;stroke-width:0.8;" x="42.055367" xlink:href="#m2b39912df5" y="189.821535"/>
      </g>
     </g>
     <g id="text_1">
      <!-- $\mathdefault{0}$ -->
      <defs>
       <path d="M 25.40625 68 
C 19.90625 68 15.703125 66.3125 12 62.8125 
C 6.203125 57.203125 2.40625 45.703125 2.40625 34 
C 2.40625 23.109375 5.703125 11.40625 10.40625 5.8125 
C 14.09375 1.40625 19.203125 -1 25 -1 
C 30.09375 -1 34.40625 0.703125 38 4.203125 
C 43.796875 9.703125 47.59375 21.3125 47.59375 33.40625 
C 47.59375 53.90625 38.5 68 25.40625 68 
z
M 25.09375 65.40625 
C 33.5 65.40625 38 54.109375 38 33.203125 
C 38 12.3125 33.59375 1.609375 25 1.609375 
C 16.40625 1.609375 12 12.3125 12 33.109375 
C 12 54.3125 16.5 65.40625 25.09375 65.40625 
z
" id="Nimbus_Roman_No9_L_Regular-48"/>
      </defs>
      <g transform="translate(30.074047 193.198824)scale(0.1 -0.1)">
       <use transform="scale(0.996264)" xlink:href="#Nimbus_Roman_No9_L_Regular-48"/>
      </g>
     </g>
    </g>
    <g id="ytick_2">
     <g id="line2d_7">
      <g>
       <use style="stroke:#000000;stroke-width:0.8;" x="42.055367" xlink:href="#m2b39912df5" y="157.018924"/>
      </g>
     </g>
     <g id="text_2">
      <!-- $\mathdefault{20}$ -->
      <defs>
       <path d="M 47.5 13.671875 
L 46.203125 14.171875 
C 42.5 8.5 41.203125 7.59375 36.703125 7.59375 
L 12.796875 7.59375 
L 29.59375 25.140625 
C 38.5 34.40625 42.40625 41.984375 42.40625 49.765625 
C 42.40625 59.734375 34.296875 67.390625 23.90625 67.390625 
C 18.40625 67.390625 13.203125 65.203125 9.5 61.21875 
C 6.296875 57.8125 4.796875 54.625 3.09375 47.546875 
L 5.203125 47.046875 
C 9.203125 56.8125 12.796875 60 19.703125 60 
C 28.09375 60 33.796875 54.3125 33.796875 45.9375 
C 33.796875 38.171875 29.203125 28.90625 20.796875 20.03125 
L 3 1.203125 
L 3 0 
L 42 0 
z
" id="Nimbus_Roman_No9_L_Regular-50"/>
      </defs>
      <g transform="translate(25.092726 160.396213)scale(0.1 -0.1)">
       <use transform="scale(0.996264)" xlink:href="#Nimbus_Roman_No9_L_Regular-50"/>
       <use transform="translate(49.8132 0)scale(0.996264)" xlink:href="#Nimbus_Roman_No9_L_Regular-48"/>
      </g>
     </g>
    </g>
    <g id="ytick_3">
     <g id="line2d_8">
      <g>
       <use style="stroke:#000000;stroke-width:0.8;" x="42.055367" xlink:href="#m2b39912df5" y="124.216313"/>
      </g>
     </g>
     <g id="text_3">
      <!-- $\mathdefault{40}$ -->
      <defs>
       <path d="M 47.203125 23.390625 
L 37 23.390625 
L 37 68 
L 32.59375 68 
L 1.203125 23.390625 
L 1.203125 17 
L 29.296875 17 
L 29.296875 0.5 
L 37 0.5 
L 37 17 
L 47.203125 17 
z
M 29.203125 23.390625 
L 5.203125 23.390625 
L 29.203125 57.78125 
z
" id="Nimbus_Roman_No9_L_Regular-52"/>
      </defs>
      <g transform="translate(25.092726 127.593602)scale(0.1 -0.1)">
       <use transform="scale(0.996264)" xlink:href="#Nimbus_Roman_No9_L_Regular-52"/>
       <use transform="translate(49.8132 0)scale(0.996264)" xlink:href="#Nimbus_Roman_No9_L_Regular-48"/>
      </g>
     </g>
    </g>
    <g id="ytick_4">
     <g id="line2d_9">
      <g>
       <use style="stroke:#000000;stroke-width:0.8;" x="42.055367" xlink:href="#m2b39912df5" y="91.413702"/>
      </g>
     </g>
     <g id="text_4">
      <!-- $\mathdefault{60}$ -->
      <defs>
       <path d="M 44.59375 68.609375 
C 33.203125 67.609375 27.40625 65.703125 20.09375 60.609375 
C 9.296875 52.90625 3.40625 41.5 3.40625 28.15625 
C 3.40625 19.5 6.09375 10.75 10.40625 5.78125 
C 14.203125 1.390625 19.59375 -1 25.796875 -1 
C 38.203125 -1 46.796875 8.453125 46.796875 22.203125 
C 46.796875 34.9375 39.5 43 28 43 
C 23.59375 43 21.5 42.296875 15.203125 38.5 
C 17.90625 53.609375 29.09375 64.40625 44.796875 67 
z
M 24.203125 38.40625 
C 32.796875 38.40625 37.796875 31.25 37.796875 18.8125 
C 37.796875 7.875 33.90625 1.8125 26.90625 1.8125 
C 18.09375 1.8125 12.703125 11.15625 12.703125 26.5625 
C 12.703125 31.640625 13.5 34.421875 15.5 35.921875 
C 17.59375 37.5 20.703125 38.40625 24.203125 38.40625 
z
" id="Nimbus_Roman_No9_L_Regular-54"/>
      </defs>
      <g transform="translate(25.092726 94.790991)scale(0.1 -0.1)">
       <use transform="scale(0.996264)" xlink:href="#Nimbus_Roman_No9_L_Regular-54"/>
       <use transform="translate(49.8132 0)scale(0.996264)" xlink:href="#Nimbus_Roman_No9_L_Regular-48"/>
      </g>
     </g>
    </g>
    <g id="ytick_5">
     <g id="line2d_10">
      <g>
       <use style="stroke:#000000;stroke-width:0.8;" x="42.055367" xlink:href="#m2b39912df5" y="58.611092"/>
      </g>
     </g>
     <g id="text_5">
      <!-- $\mathdefault{80}$ -->
      <defs>
       <path d="M 29 37.5 
C 38.90625 42.8125 42.40625 47 42.40625 53.8125 
C 42.40625 62 35.203125 68 25.203125 68 
C 14.296875 68 6.203125 61.3125 6.203125 52.203125 
C 6.203125 45.703125 8.09375 42.8125 18.59375 33.609375 
C 7.796875 25.40625 5.59375 22.3125 5.59375 15.5 
C 5.59375 5.8125 13.5 -1 24.796875 -1 
C 36.796875 -1 44.5 5.609375 44.5 15.90625 
C 44.5 23.609375 41.09375 28.5 29 37.5 
z
M 27.203125 27.203125 
C 34.5 22 36.90625 18.40625 36.90625 12.8125 
C 36.90625 6.3125 32.40625 1.8125 25.90625 1.8125 
C 18.296875 1.8125 13.203125 7.609375 13.203125 16.3125 
C 13.203125 22.703125 15.40625 26.90625 21.203125 31.609375 
z
M 26.09375 39.3125 
C 17.203125 45.109375 13.59375 49.703125 13.59375 55.3125 
C 13.59375 61.109375 18.09375 65.203125 24.40625 65.203125 
C 31.203125 65.203125 35.5 60.8125 35.5 53.90625 
C 35.5 48.203125 32.703125 43.703125 27 39.90625 
C 26.5 39.609375 26.5 39.609375 26.09375 39.3125 
z
" id="Nimbus_Roman_No9_L_Regular-56"/>
      </defs>
      <g transform="translate(25.092726 61.98838)scale(0.1 -0.1)">
       <use transform="scale(0.996264)" xlink:href="#Nimbus_Roman_No9_L_Regular-56"/>
       <use transform="translate(49.8132 0)scale(0.996264)" xlink:href="#Nimbus_Roman_No9_L_Regular-48"/>
      </g>
     </g>
    </g>
    <g id="ytick_6">
     <g id="line2d_11">
      <g>
       <use style="stroke:#000000;stroke-width:0.8;" x="42.055367" xlink:href="#m2b39912df5" y="25.808481"/>
      </g>
     </g>
     <g id="text_6">
      <!-- $\mathdefault{100}$ -->
      <defs>
       <path d="M 29.09375 67.796875 
L 11.09375 58.703125 
L 11.09375 57.296875 
C 12.296875 57.796875 13.40625 58.203125 13.796875 58.40625 
C 15.59375 59.109375 17.296875 59.5 18.296875 59.5 
C 20.40625 59.5 21.296875 57.984375 21.296875 54.765625 
L 21.296875 9.25 
C 21.296875 5.921875 20.5 3.625 18.90625 2.703125 
C 17.40625 1.8125 16 1.5 11.796875 1.5 
L 11.796875 0 
L 39.40625 0 
L 39.40625 1.5 
C 31.5 1.5 29.90625 2.5 29.90625 7.34375 
L 29.90625 67.609375 
z
" id="Nimbus_Roman_No9_L_Regular-49"/>
      </defs>
      <g transform="translate(20.111406 29.18577)scale(0.1 -0.1)">
       <use transform="scale(0.996264)" xlink:href="#Nimbus_Roman_No9_L_Regular-49"/>
       <use transform="translate(49.8132 0)scale(0.996264)" xlink:href="#Nimbus_Roman_No9_L_Regular-48"/>
       <use transform="translate(99.626401 0)scale(0.996264)" xlink:href="#Nimbus_Roman_No9_L_Regular-48"/>
      </g>
     </g>
    </g>
    <g id="text_7">
     <!-- Distance / $R_\odot$ -->
     <defs>
      <path d="M 10.40625 10.609375 
C 10.40625 3.390625 9.203125 2.09375 1.59375 2.09375 
L 1.59375 0 
L 30 0 
C 41.59375 0 52.09375 3.28125 58.296875 8.875 
C 64.796875 14.75 68.5 23.625 68.5 33.296875 
C 68.5 42.28125 65.5 50.046875 60 55.53125 
C 53.203125 62.40625 42.296875 66 28.59375 66 
L 1.59375 66 
L 1.59375 64.09375 
C 9.5 63.390625 10.40625 62.5 10.40625 55.078125 
z
M 20.59375 58.40625 
C 20.59375 61.5 21.703125 62.296875 25.796875 62.296875 
C 34.40625 62.296875 40.90625 60.703125 45.703125 57.3125 
C 53.5 51.921875 57.59375 43.359375 57.59375 32.609375 
C 57.59375 20.84375 53.5 12.46875 45.40625 7.78125 
C 40.296875 4.90625 34.5 3.703125 25.796875 3.703125 
C 21.796875 3.703125 20.59375 4.59375 20.59375 7.78125 
z
" id="Nimbus_Roman_No9_L_Regular-68"/>
      <path d="M 17.5 45.765625 
L 2 40.296875 
L 2 38.8125 
L 2.796875 38.90625 
C 4 39.09375 5.296875 39.203125 6.203125 39.203125 
C 8.59375 39.203125 9.5 37.59375 9.5 33.203125 
L 9.5 10 
C 9.5 2.796875 8.5 1.703125 1.59375 1.703125 
L 1.59375 0 
L 25.296875 0 
L 25.296875 1.5 
C 18.703125 2 17.90625 2.984375 17.90625 10.15625 
L 17.90625 45.46875 
z
M 12.796875 68 
C 10.09375 68 7.796875 65.703125 7.796875 62.90625 
C 7.796875 60.109375 10 57.796875 12.796875 57.796875 
C 15.703125 57.796875 18 60 18 62.90625 
C 18 65.703125 15.703125 68 12.796875 68 
z
" id="Nimbus_Roman_No9_L_Regular-105"/>
      <path d="M 31.5 31.40625 
L 31.09375 45 
L 30 45 
L 29.796875 44.796875 
C 28.90625 44.09375 28.796875 44 28.40625 44 
C 27.796875 44 26.796875 44.203125 25.703125 44.703125 
C 23.5 45.546875 21.296875 46 18.703125 46 
C 10.796875 46 5.09375 40.875 5.09375 33.65625 
C 5.09375 28.0625 8.296875 24.046875 16.796875 19.234375 
L 22.59375 15.9375 
C 26.09375 13.9375 27.796875 11.515625 27.796875 8.421875 
C 27.796875 4 24.59375 1.203125 19.5 1.203125 
C 16.09375 1.203125 13 2.484375 11.09375 4.65625 
C 9 7.109375 8.09375 9.375 6.796875 15 
L 5.203125 15 
L 5.203125 -0.609375 
L 6.5 -0.609375 
C 7.203125 0.515625 7.59375 0.75 8.796875 0.75 
C 9.703125 0.75 11.09375 0.546875 13.40625 -0.03125 
C 16.203125 -0.609375 18.90625 -1 20.703125 -1 
C 28.40625 -1 34.796875 4.8125 34.796875 11.828125 
C 34.796875 16.828125 32.40625 20.140625 26.40625 23.75 
L 15.59375 30.15625 
C 12.796875 31.765625 11.296875 34.28125 11.296875 36.984375 
C 11.296875 41 14.40625 43.796875 19 43.796875 
C 24.703125 43.796875 27.703125 40.359375 30 31.40625 
z
" id="Nimbus_Roman_No9_L_Regular-115"/>
      <path d="M 25.5 45 
L 15.40625 45 
L 15.40625 56.59375 
C 15.40625 57.59375 15.296875 57.90625 14.703125 57.90625 
C 14 57 13.40625 56.09375 12.703125 55.09375 
C 8.90625 49.59375 4.59375 44.796875 3 44.390625 
C 1.90625 43.65625 1.296875 42.9375 1.296875 42.421875 
C 1.296875 42.109375 1.40625 41.90625 1.703125 41.90625 
L 7 41.90625 
L 7 11.734375 
C 7 3.3125 10 -1 15.90625 -1 
C 20.796875 -1 24.59375 1.40625 27.90625 6.609375 
L 26.59375 7.703125 
C 24.5 5.203125 22.796875 4.203125 20.59375 4.203125 
C 16.90625 4.203125 15.40625 6.921875 15.40625 13.234375 
L 15.40625 41.90625 
L 25.5 41.90625 
z
" id="Nimbus_Roman_No9_L_Regular-116"/>
      <path d="M 44.203125 6.609375 
C 42.5 5.203125 41.296875 4.703125 39.796875 4.703125 
C 37.5 4.703125 36.796875 6.09375 36.796875 10.5 
L 36.796875 30 
C 36.796875 35.203125 36.296875 38.09375 34.796875 40.5 
C 32.59375 44.09375 28.296875 46 22.40625 46 
C 13 46 5.59375 41.09375 5.59375 34.796875 
C 5.59375 32.5 7.59375 30.5 9.90625 30.5 
C 12.296875 30.5 14.40625 32.5 14.40625 34.703125 
C 14.40625 35.09375 14.296875 35.59375 14.203125 36.296875 
C 14 37.203125 13.90625 38 13.90625 38.703125 
C 13.90625 41.40625 17.09375 43.59375 21.09375 43.59375 
C 26 43.59375 28.703125 40.703125 28.703125 35.296875 
L 28.703125 29.203125 
C 13.296875 23 11.59375 22.203125 7.296875 18.40625 
C 5.09375 16.40625 3.703125 13 3.703125 9.703125 
C 3.703125 3.40625 8.09375 -1 14.203125 -1 
C 18.59375 -1 22.703125 1.09375 28.796875 6.296875 
C 29.296875 1.09375 31.09375 -1 35.203125 -1 
C 38.59375 -1 40.703125 0.203125 44.203125 4 
z
M 28.703125 12.234375 
C 28.703125 9.125 28.203125 8.21875 26.09375 7.015625 
C 23.703125 5.609375 20.90625 4.703125 18.796875 4.703125 
C 15.296875 4.703125 12.5 8.125 12.5 12.4375 
L 12.5 12.84375 
C 12.5 18.765625 16.59375 22.390625 28.703125 26.796875 
z
" id="Nimbus_Roman_No9_L_Regular-97"/>
      <path d="M 1.59375 40.296875 
C 2.203125 40.59375 3.203125 40.703125 4.296875 40.703125 
C 7.09375 40.703125 8 39.203125 8 34.296875 
L 8 9.5 
C 8 3.796875 6.90625 2.40625 1.796875 2 
L 1.796875 0.5 
L 23 0.5 
L 23 2 
C 17.90625 2.40625 16.40625 3.59375 16.40625 7.203125 
L 16.40625 35.296875 
C 21.203125 39.796875 23.40625 41 26.703125 41 
C 31.59375 41 34 37.90625 34 31.296875 
L 34 10.40625 
C 34 4.09375 32.703125 2.40625 27.703125 2 
L 27.703125 0.5 
L 48.5 0.5 
L 48.5 2 
C 43.59375 2.5 42.40625 3.703125 42.40625 8.59375 
L 42.40625 31.5 
C 42.40625 40.90625 38 46.5 30.59375 46.5 
C 26 46.5 22.90625 44.796875 16.09375 38.40625 
L 16.09375 46.296875 
L 15.40625 46.5 
C 10.5 44.703125 7.09375 43.59375 1.59375 42 
z
" id="Nimbus_Roman_No9_L_Regular-110"/>
      <path d="M 39.796875 15.59375 
C 35 8.59375 31.40625 6.203125 25.703125 6.203125 
C 16.59375 6.203125 10.203125 14.203125 10.203125 25.703125 
C 10.203125 36 15.703125 43.09375 23.796875 43.09375 
C 27.40625 43.09375 28.703125 42 29.703125 38.296875 
L 30.296875 36.09375 
C 31.09375 33.296875 32.90625 31.5 35 31.5 
C 37.59375 31.5 39.796875 33.40625 39.796875 35.703125 
C 39.796875 41.296875 32.796875 46 24.40625 46 
C 19.5 46 14.40625 44 10.296875 40.40625 
C 5.296875 36 2.5 29.203125 2.5 21.296875 
C 2.5 8.296875 10.40625 -1 21.5 -1 
C 26 -1 30 0.59375 33.59375 3.703125 
C 36.296875 6.09375 38.203125 8.796875 41.203125 14.703125 
z
" id="Nimbus_Roman_No9_L_Regular-99"/>
      <path d="M 40.796875 16.453125 
C 36 8.8125 31.703125 5.90625 25.296875 5.90625 
C 19.59375 5.90625 15.296875 8.8125 12.40625 14.53125 
C 10.59375 18.34375 9.90625 21.65625 9.703125 27.796875 
L 40.5 27.796875 
C 39.703125 34.265625 38.703125 37.140625 36.203125 40.328125 
C 33.203125 43.921875 28.59375 46 23.40625 46 
C 18.40625 46 13.703125 44.203125 9.90625 40.796875 
C 5.203125 36.703125 2.5 29.59375 2.5 21.40625 
C 2.5 7.59375 9.703125 -1 21.203125 -1 
C 30.703125 -1 38.203125 4.921875 42.40625 15.75 
z
M 9.90625 31 
C 11 38.734375 14.40625 42.40625 20.5 42.40625 
C 26.59375 42.40625 29 39.609375 30.296875 31 
z
" id="Nimbus_Roman_No9_L_Regular-101"/>
      <path d="M 28.703125 68 
L 22 68 
L -0.90625 -1 
L 5.90625 -1 
z
" id="Nimbus_Roman_No9_L_Regular-47"/>
      <path d="M 56.703125 1.703125 
C 52.296875 1.703125 50.296875 3.40625 48.40625 8.609375 
L 39.09375 33.140625 
C 46.796875 34.828125 50.09375 36.234375 53.703125 39.40625 
C 57 42.296875 58.796875 46.171875 58.796875 50.671875 
C 58.796875 59.9375 51.40625 65 38 65 
L 13.203125 65 
L 13.203125 63.40625 
C 17.40625 62.8125 17.90625 62.703125 18.90625 62.015625 
C 19.703125 61.515625 20.296875 60.328125 20.296875 59.234375 
C 20.296875 58.03125 19.796875 55.640625 19.09375 52.96875 
L 6.796875 8.984375 
C 5 3.109375 4.296875 2.515625 -1.296875 1.609375 
L -1.296875 0 
L 23.09375 0 
L 23.09375 1.609375 
C 17 2.40625 16.296875 2.90625 16.296875 6.1875 
C 16.296875 7.1875 16.59375 8.46875 17.5 11.953125 
L 23.09375 32.734375 
L 29.59375 32.234375 
L 41.90625 0 
L 56.703125 0 
z
M 30.796875 59.21875 
C 31.40625 61.3125 32.703125 62.015625 35.90625 62.015625 
C 44.203125 62.015625 48.296875 58.234375 48.296875 50.859375 
C 48.296875 41 41.90625 35.921875 29.40625 35.921875 
C 27.796875 35.921875 26.703125 36.03125 24.296875 36.421875 
z
" id="Nimbus_Roman_No9_L_Regular_Italic-82"/>
      <path d="M 72.21875 25 
C 72.21875 43.4375 57.21875 58.359375 38.90625 58.359375 
C 20.3125 58.359375 5.5 43.234375 5.5 25 
C 5.5 6.5625 20.5 -8.359375 38.8125 -8.359375 
C 57.421875 -8.359375 72.21875 6.765625 72.21875 25 
z
M 38.90625 -5.859375 
C 21.703125 -5.859375 8 8.0625 8 25 
C 8 42.234375 22 55.859375 38.8125 55.859375 
C 56.015625 55.859375 69.71875 41.9375 69.71875 25 
C 69.71875 7.765625 55.71875 -5.859375 38.90625 -5.859375 
z
M 45.703125 25 
C 45.703125 28.796875 42.59375 31.90625 38.90625 31.90625 
C 34.90625 31.90625 32 28.59375 32 25 
C 32 21.203125 35.09375 18.09375 38.796875 18.09375 
C 42.796875 18.09375 45.703125 21.40625 45.703125 25 
z
" id="CMSY10-12"/>
     </defs>
     <g transform="translate(13.954578 125.726169)rotate(-90)scale(0.1 -0.1)">
      <use transform="scale(0.996264)" xlink:href="#Nimbus_Roman_No9_L_Regular-68"/>
      <use transform="translate(71.929985 0)scale(0.996264)" xlink:href="#Nimbus_Roman_No9_L_Regular-105"/>
      <use transform="translate(99.625154 0)scale(0.996264)" xlink:href="#Nimbus_Roman_No9_L_Regular-115"/>
      <use transform="translate(138.378861 0)scale(0.996264)" xlink:href="#Nimbus_Roman_No9_L_Regular-116"/>
      <use transform="translate(166.07403 0)scale(0.996264)" xlink:href="#Nimbus_Roman_No9_L_Regular-97"/>
      <use transform="translate(210.307599 0)scale(0.996264)" xlink:href="#Nimbus_Roman_No9_L_Regular-110"/>
      <use transform="translate(260.120799 0)scale(0.996264)" xlink:href="#Nimbus_Roman_No9_L_Regular-99"/>
      <use transform="translate(304.354368 0)scale(0.996264)" xlink:href="#Nimbus_Roman_No9_L_Regular-101"/>
      <use transform="translate(373.494537 0)scale(0.996264)" xlink:href="#Nimbus_Roman_No9_L_Regular-47"/>
      <use transform="translate(426.096307 0)scale(0.996264)" xlink:href="#Nimbus_Roman_No9_L_Regular_Italic-82"/>
      <use transform="translate(486.967938 -14.943915)scale(0.737241)" xlink:href="#CMSY10-12"/>
     </g>
    </g>
   </g>
   <g id="line2d_12">
    <path clip-path="url(#pec84e48827)" d="M 42.055367 15.663982 
L 71.156365 15.869216 
L 79.677414 16.265469 
L 87.357144 16.834841 
L 94.109266 17.556994 
L 100.753526 18.493053 
L 107.05263 19.599684 
L 112.726139 20.818228 
L 117.989774 22.173574 
L 123.123975 23.725121 
L 128.215032 25.496789 
L 133.284516 27.495689 
L 138.289284 29.709002 
L 143.164618 32.108402 
L 148.104669 34.788739 
L 153.066292 37.733049 
L 157.87691 40.844228 
L 162.42866 44.051856 
L 166.786259 47.393611 
L 171.079142 50.965031 
L 175.307308 54.768026 
L 179.535474 58.868374 
L 184.022507 63.534105 
L 188.315389 68.311785 
L 192.349405 73.128859 
L 196.448137 78.382997 
L 200.352719 83.745726 
L 203.998433 89.13479 
L 207.38528 94.538421 
L 210.707411 100.267917 
L 214.029541 106.440209 
L 217.330099 113.041353 
L 220.587512 120.060082 
L 223.780209 127.472161 
L 227.620074 136.995755 
L 233.660311 152.034639 
L 235.17037 155.157704 
L 236.335273 157.089541 
L 237.241308 158.197885 
L 238.01791 158.822589 
L 238.686651 159.103794 
L 239.333819 159.154692 
L 240.045704 158.978153 
L 240.887023 158.507745 
L 241.922492 157.651579 
L 246.280092 153.722926 
L 247.40185 153.145061 
L 248.372602 152.877991 
L 249.213921 152.857063 
L 250.05524 153.060784 
L 250.918131 153.511413 
L 251.888883 154.294046 
L 252.924352 155.435316 
L 253.959821 156.911437 
L 255.146296 159.010763 
L 256.570067 162.004303 
L 260.539365 170.73261 
L 261.186533 171.518033 
L 261.704268 171.857497 
L 262.222003 171.918087 
L 262.739737 171.709718 
L 263.343761 171.176108 
L 264.120363 170.156401 
L 265.932434 167.251512 
L 267.313059 165.276871 
L 268.348529 164.157811 
L 269.254564 163.481793 
L 270.117455 163.113364 
L 270.894057 163.017302 
L 271.627514 163.141793 
L 272.404116 163.511699 
L 273.223863 164.154648 
L 274.129898 165.153359 
L 275.165367 166.63049 
L 276.545993 169.035702 
L 278.703221 172.834116 
L 279.393533 173.619072 
L 279.954412 173.95384 
L 280.385858 174.002211 
L 280.903593 173.824233 
L 281.507616 173.337423 
L 282.327363 172.351133 
L 285.002325 168.903919 
L 285.90836 168.195017 
L 286.684962 167.870667 
L 287.41842 167.818016 
L 288.065588 167.978839 
L 288.799045 168.393223 
L 289.618792 169.134881 
L 290.611116 170.380376 
L 292.034886 172.600544 
L 293.329223 174.510967 
L 293.976391 175.146492 
L 294.494126 175.400018 
L 295.01186 175.397966 
L 295.529595 175.152413 
L 296.219908 174.528476 
L 297.514244 172.951301 
L 298.722291 171.633852 
L 299.585182 171.021807 
L 300.232351 170.793822 
L 300.879519 170.780253 
L 301.526687 170.986526 
L 302.260145 171.481929 
L 303.079891 172.339267 
L 304.158505 173.84225 
L 305.884287 176.27201 
L 306.48831 176.743573 
L 306.919756 176.862475 
L 307.394346 176.772251 
L 307.955225 176.405777 
L 308.818116 175.503633 
L 310.37132 173.861481 
L 311.147922 173.371505 
L 311.79509 173.21202 
L 312.399114 173.284435 
L 313.046282 173.601061 
L 313.779739 174.241354 
L 314.685775 175.366506 
L 316.497846 177.723685 
L 317.01558 178.044273 
L 317.49017 178.085441 
L 317.921616 177.916203 
L 318.568784 177.383148 
L 320.682867 175.389377 
L 321.330035 175.160121 
L 321.890915 175.179874 
L 322.494938 175.433103 
L 323.142106 175.955438 
L 323.961853 176.911784 
L 325.471912 178.743579 
L 325.989647 179.035975 
L 326.464237 179.038802 
L 326.895682 178.833382 
L 327.62914 178.188975 
L 328.923476 177.013841 
L 329.570644 176.721804 
L 330.174668 176.711665 
L 330.735547 176.939174 
L 331.382715 177.46321 
L 332.37504 178.631544 
L 333.281076 179.620045 
L 333.79881 179.888161 
L 334.2734 179.857855 
L 334.791135 179.556913 
L 336.991507 177.939743 
L 337.509241 177.958298 
L 338.026976 178.191136 
L 338.674144 178.75163 
L 340.572504 180.638711 
L 340.960805 180.661898 
L 341.435395 180.44644 
L 342.211997 179.775158 
L 343.031744 179.14866 
L 343.549478 178.984096 
L 344.067213 179.055646 
L 344.584948 179.366668 
L 345.27526 180.08271 
L 346.397019 181.295455 
L 346.828464 181.445679 
L 347.25991 181.323742 
L 347.863933 180.828054 
L 348.899403 179.957945 
L 349.417137 179.817238 
L 349.848583 179.909924 
L 350.366317 180.268718 
L 351.142919 181.1622 
L 351.833232 181.890545 
L 352.264677 182.043609 
L 352.609834 181.938546 
L 353.127568 181.498057 
L 354.163038 180.543435 
L 354.680772 180.394291 
L 355.112218 180.50798 
L 355.629952 180.915087 
L 357.183156 182.433529 
L 357.528312 182.36384 
L 357.959758 182.016883 
L 359.167805 180.896955 
L 359.599251 180.811887 
L 360.030696 180.962055 
L 360.548431 181.420486 
L 361.756478 182.669934 
L 362.101635 182.680477 
L 362.53308 182.3912 
L 363.913706 181.173922 
L 364.345151 181.175929 
L 364.776597 181.422852 
L 365.38062 182.078973 
L 366.070933 182.81536 
L 366.41609 182.92709 
L 366.761246 182.792452 
L 367.278981 182.27519 
L 368.055582 181.518329 
L 368.487028 181.37234 
L 368.918473 181.486393 
L 369.436208 181.934324 
L 370.557966 183.063979 
L 370.903123 183.037054 
L 371.334568 182.688411 
L 372.370037 181.657538 
L 372.801483 181.549796 
L 373.232928 181.71144 
L 373.750663 182.209071 
L 374.613554 183.132913 
L 374.95871 183.198608 
L 375.303867 183.006242 
L 376.857071 181.696387 
L 377.288516 181.815426 
L 377.806251 182.281026 
L 378.755431 183.260957 
L 379.100587 183.275704 
L 379.445744 183.038196 
L 380.74008 181.849129 
L 381.085236 181.844082 
L 381.516682 182.087376 
L 382.120706 182.756024 
L 382.724729 183.334417 
L 383.069886 183.364525 
L 383.415042 183.136348 
L 384.709379 181.960519 
L 385.054535 181.965603 
L 385.48598 182.222927 
L 386.262582 183.095413 
L 386.694028 183.426673 
L 387.039184 183.408905 
L 387.47063 183.052568 
L 388.41981 182.122441 
L 388.851255 182.041624 
L 389.282701 182.248333 
L 389.886725 182.891352 
L 390.490748 183.465278 
L 390.835905 183.491002 
L 391.181061 183.25872 
L 392.389108 182.149724 
L 392.734265 182.138448 
L 393.16571 182.383533 
L 393.856023 183.150835 
L 394.373758 183.561119 
L 394.718914 183.517419 
L 395.15036 183.137798 
L 396.013251 182.288182 
L 396.444696 182.197632 
L 396.789852 182.340636 
L 397.307587 182.845126 
L 398.084189 183.60244 
L 398.429345 183.590873 
L 398.774502 183.324141 
L 399.809971 182.324399 
L 400.155127 182.266968 
L 400.500284 182.403501 
L 401.018018 182.90433 
L 401.708331 183.61777 
L 402.053487 183.669581 
L 402.398644 183.444775 
L 403.606691 182.34742 
L 403.951848 182.360695 
L 404.383293 182.645809 
L 405.591341 183.719688 
L 405.936497 183.572209 
L 406.62681 182.830672 
L 407.144544 182.443594 
L 407.489701 182.410056 
L 407.834857 182.573631 
L 408.352592 183.098979 
L 408.956615 183.695062 
L 409.301772 183.741777 
L 409.646928 183.51252 
L 410.768686 182.48471 
L 411.113843 182.477852 
L 411.545288 182.737365 
L 412.753336 183.792535 
L 413.098492 183.647974 
L 413.788805 182.916374 
L 414.30654 182.547283 
L 414.651696 182.534161 
L 415.083141 182.788554 
L 416.291189 183.82738 
L 416.636345 183.67736 
L 418.016971 182.565047 
L 418.362127 182.665626 
L 418.793573 183.035493 
L 419.656464 183.846765 
L 420.00162 183.800684 
L 420.433066 183.411926 
L 421.209667 182.684132 
L 421.554824 182.613748 
L 421.89998 182.746015 
L 422.417715 183.246183 
L 423.021739 183.845335 
L 423.366895 183.889235 
L 423.712051 183.655225 
L 424.747521 182.704992 
L 425.092677 182.688191 
L 425.437833 182.872708 
L 426.128146 183.606064 
L 426.559592 183.924222 
L 426.904748 183.876517 
L 427.422483 183.389731 
L 428.112795 182.788323 
L 428.457952 182.743851 
L 428.803108 182.903452 
L 429.493421 183.620138 
L 429.838577 183.919203 
L 430.183734 183.96643 
L 430.52889 183.735887 
L 431.391781 182.896108 
L 431.736938 182.797538 
L 432.082094 182.90667 
L 432.599829 183.386732 
L 433.117563 183.915962 
L 433.46272 184.021411 
L 433.807876 183.838134 
L 434.843345 182.900709 
L 435.188501 182.877613 
L 435.533658 183.059812 
L 436.741705 184.066583 
L 437.086862 183.904497 
L 438.275761 182.934728 
L 438.60177 182.992857 
L 438.99298 183.28915 
L 439.903296 184.105524 
L 440.229304 184.037532 
L 440.683208 183.614897 
L 441.335225 183.052259 
L 441.723927 183.016567 
L 442.115137 183.245456 
L 443.221058 184.156124 
L 443.547067 184.009765 
L 444.783391 183.056485 
L 445.106892 183.151841 
L 445.563303 183.553053 
L 446.278014 184.18102 
L 446.604023 184.133233 
L 447.060435 183.719084 
L 447.709944 183.161741 
L 448.101154 183.133098 
L 448.489856 183.370344 
L 449.530575 184.233563 
L 449.856584 184.098697 
L 451.092908 183.162107 
L 451.418917 183.270184 
L 451.872821 183.68201 
L 452.524837 184.248811 
L 452.850846 184.209765 
L 453.239548 183.874709 
L 453.956767 183.253028 
L 454.345469 183.235234 
L 454.736679 183.485183 
L 455.712197 184.296912 
L 456.038205 184.176272 
L 457.339731 183.269331 
L 457.728434 183.47189 
L 458.834355 184.328371 
L 459.160363 184.154596 
L 460.201082 183.319561 
L 460.527091 183.370861 
L 460.918301 183.667595 
L 461.698213 184.351595 
L 462.024222 184.298456 
L 462.478126 183.886586 
L 463.064941 183.402273 
L 463.388442 183.365199 
L 463.779652 183.575554 
L 464.820371 184.391525 
L 465.146379 184.234582 
L 466.2523 183.391812 
L 466.578309 183.482085 
L 467.032213 183.880335 
L 467.619028 184.39239 
L 467.942529 184.375208 
L 468.333739 184.052948 
L 468.983248 183.489099 
L 469.309256 183.440256 
L 469.700466 183.640706 
L 470.741186 184.441412 
L 471.067194 184.280014 
L 472.107913 183.474954 
L 472.431414 183.543455 
L 472.887826 183.923252 
L 473.539843 184.456727 
L 473.863343 184.393977 
L 474.319755 183.978612 
L 474.904063 183.537232 
L 475.230071 183.536126 
L 475.621281 183.785467 
L 476.466395 184.483833 
L 476.792404 184.396444 
L 477.376711 183.843499 
L 477.833123 183.558209 
L 478.159131 183.582859 
L 478.547834 183.854546 
L 479.327746 184.503383 
L 479.653755 184.42964 
L 480.175368 183.944227 
L 480.694474 183.592964 
L 481.020482 183.612963 
L 481.411692 183.883714 
L 482.191605 184.525814 
L 482.517613 184.44794 
L 483.036719 183.965696 
L 483.493131 183.641503 
L 483.819139 183.630516 
L 484.207842 183.870624 
L 485.055464 184.555151 
L 485.378964 184.456227 
L 486.615289 183.662211 
L 487.006499 183.878639 
L 487.916815 184.571463 
L 488.242823 184.442167 
L 489.348744 183.682883 
L 489.672245 183.804693 
L 490.25906 184.346694 
L 490.65027 184.587985 
L 490.973771 184.523556 
L 491.495384 184.105559 
L 492.01449 183.774957 
L 492.340498 183.788487 
L 492.731708 184.03449 
L 493.511621 184.591959 
L 493.837629 184.497664 
L 495.008752 183.788128 
L 495.399962 183.980844 
L 496.310278 184.615014 
L 496.633779 184.49019 
L 497.611804 183.873984 
L 498.000506 183.976948 
L 499.171629 184.562776 
L 499.628041 184.271491 
L 500.212348 183.917919 
L 500.603558 183.947106 
L 501.05997 184.243577 
L 501.644277 184.5968 
L 501.970286 184.542734 
L 503.271812 183.962023 
L 503.725716 184.240209 
L 504.312531 184.60862 
L 504.636032 184.573096 
L 505.157645 184.208918 
L 505.679259 183.951382 
L 506.067961 184.026418 
L 506.719978 184.49497 
L 507.10868 184.636641 
L 507.434689 184.52892 
L 508.475408 183.97109 
L 508.866618 184.11844 
L 509.842136 184.649603 
L 510.233346 184.458731 
L 511.013258 183.996742 
L 511.404468 184.070501 
L 512.640793 184.626222 
L 513.2251 184.22515 
L 513.681512 184.031161 
L 514.070214 184.114318 
L 514.787433 184.629091 
L 515.110934 184.728159 
L 515.436942 184.586583 
L 516.347258 184.02091 
L 516.738468 184.127974 
L 517.844389 184.704235 
L 518.235599 184.464476 
L 518.885108 184.056348 
L 519.276318 184.105685 
L 519.795424 184.480021 
L 520.251836 184.736682 
L 520.577844 184.670241 
L 521.748967 184.082855 
L 522.137669 184.289971 
L 522.854888 184.756339 
L 523.178388 184.698253 
L 524.284309 184.167868 
L 524.67552 184.314221 
L 525.585835 184.817071 
L 525.911844 184.684338 
L 526.626555 184.293058 
L 527.082966 184.323123 
L 528.449694 184.69998 
L 529.555615 184.325682 
L 529.555615 184.325682 
" style="fill:none;stroke:#1f77b4;stroke-linecap:square;stroke-width:1.5;"/>
   </g>
   <g id="line2d_13">
    <path clip-path="url(#pec84e48827)" d="M 42.055367 15.663982 
L 71.156365 15.869216 
L 79.677414 16.265469 
L 87.357144 16.834841 
L 94.109266 17.556994 
L 100.753526 18.493053 
L 107.05263 19.599684 
L 112.726139 20.818228 
L 117.989774 22.173574 
L 123.123975 23.725121 
L 128.215032 25.496789 
L 133.284516 27.495689 
L 138.289284 29.709002 
L 143.164618 32.108402 
L 148.104669 34.788739 
L 153.066292 37.733049 
L 157.87691 40.844228 
L 162.42866 44.051856 
L 166.786259 47.393611 
L 171.079142 50.965031 
L 175.307308 54.768026 
L 179.535474 58.868374 
L 184.022507 63.534105 
L 188.315389 68.311785 
L 192.349405 73.128859 
L 196.448137 78.382997 
L 200.352719 83.745726 
L 203.998433 89.13479 
L 207.38528 94.538421 
L 210.707411 100.267917 
L 214.029541 106.440209 
L 217.330099 113.041353 
L 220.587512 120.060082 
L 223.780209 127.472161 
L 227.620074 136.995755 
L 233.660311 152.034639 
L 235.17037 155.157704 
L 236.335273 157.089541 
L 237.241308 158.197885 
L 238.01791 158.822589 
L 238.686651 159.103794 
L 239.333819 159.154692 
L 240.045704 158.978153 
L 240.887023 158.507745 
L 241.922492 157.651579 
L 246.280092 153.722926 
L 247.40185 153.145061 
L 248.372602 152.877991 
L 249.213921 152.857063 
L 250.05524 153.060784 
L 250.918131 153.511413 
L 251.888883 154.294046 
L 252.924352 155.435316 
L 253.959821 156.911437 
L 255.146296 159.010763 
L 256.570067 162.004303 
L 260.539365 170.73261 
L 261.186533 171.518033 
L 261.704268 171.857497 
L 262.222003 171.918087 
L 262.739737 171.709718 
L 263.343761 171.176108 
L 264.120363 170.156401 
L 265.932434 167.251512 
L 267.313059 165.276871 
L 268.348529 164.157811 
L 269.254564 163.481793 
L 270.117455 163.113364 
L 270.894057 163.017302 
L 271.627514 163.141793 
L 272.404116 163.511699 
L 273.223863 164.154648 
L 274.129898 165.153359 
L 275.165367 166.63049 
L 276.545993 169.035702 
L 278.703221 172.834116 
L 279.393533 173.619072 
L 279.954412 173.95384 
L 280.385858 174.002211 
L 280.903593 173.824233 
L 281.507616 173.337423 
L 282.327363 172.351133 
L 285.002325 168.903919 
L 285.90836 168.195017 
L 286.684962 167.870667 
L 287.41842 167.818016 
L 288.065588 167.978839 
L 288.799045 168.393223 
L 289.618792 169.134881 
L 290.611116 170.380376 
L 292.034886 172.600544 
L 293.329223 174.510967 
L 293.976391 175.146492 
L 294.494126 175.400018 
L 295.01186 175.397966 
L 295.529595 175.152413 
L 296.219908 174.528476 
L 297.514244 172.951301 
L 298.722291 171.633852 
L 299.585182 171.021807 
L 300.232351 170.793822 
L 300.879519 170.780253 
L 301.526687 170.986526 
L 302.260145 171.481929 
L 303.079891 172.339267 
L 304.158505 173.84225 
L 305.884287 176.27201 
L 306.48831 176.743573 
L 306.919756 176.862475 
L 307.394346 176.772251 
L 307.955225 176.405777 
L 308.818116 175.503633 
L 310.37132 173.861481 
L 311.147922 173.371505 
L 311.79509 173.21202 
L 312.399114 173.284435 
L 313.046282 173.601061 
L 313.779739 174.241354 
L 314.685775 175.366506 
L 316.497846 177.723685 
L 317.01558 178.044273 
L 317.49017 178.085441 
L 317.921616 177.916203 
L 318.568784 177.383148 
L 320.682867 175.389377 
L 321.330035 175.160121 
L 321.890915 175.179874 
L 322.494938 175.433103 
L 323.142106 175.955438 
L 323.961853 176.911784 
L 325.471912 178.743579 
L 325.989647 179.035975 
L 326.464237 179.038802 
L 326.895682 178.833382 
L 327.62914 178.188975 
L 328.923476 177.013841 
L 329.570644 176.721804 
L 330.174668 176.711665 
L 330.735547 176.939174 
L 331.382715 177.46321 
L 332.37504 178.631544 
L 333.281076 179.620045 
L 333.79881 179.888161 
L 334.2734 179.857855 
L 334.791135 179.556913 
L 336.991507 177.939743 
L 337.509241 177.958298 
L 338.026976 178.191136 
L 338.674144 178.75163 
L 340.572504 180.638711 
L 340.960805 180.661898 
L 341.435395 180.44644 
L 342.211997 179.775158 
L 343.031744 179.14866 
L 343.549478 178.984096 
L 344.067213 179.055646 
L 344.584948 179.366668 
L 345.27526 180.08271 
L 346.397019 181.295455 
L 346.828464 181.445679 
L 347.25991 181.323742 
L 347.863933 180.828054 
L 348.899403 179.957945 
L 349.417137 179.817238 
L 349.848583 179.909924 
L 350.366317 180.268718 
L 351.142919 181.1622 
L 351.833232 181.890545 
L 352.264677 182.043609 
L 352.609834 181.938546 
L 353.127568 181.498057 
L 354.163038 180.543435 
L 354.680772 180.394291 
L 355.112218 180.50798 
L 355.629952 180.915087 
L 357.183156 182.433529 
L 357.528312 182.36384 
L 357.959758 182.016883 
L 359.167805 180.896955 
L 359.599251 180.811887 
L 360.030696 180.962055 
L 360.548431 181.420486 
L 361.756478 182.669934 
L 362.101635 182.680477 
L 362.53308 182.3912 
L 363.913706 181.173922 
L 364.345151 181.175929 
L 364.776597 181.422852 
L 365.38062 182.078973 
L 366.070933 182.81536 
L 366.41609 182.92709 
L 366.761246 182.792452 
L 367.278981 182.27519 
L 368.055582 181.518329 
L 368.487028 181.37234 
L 368.918473 181.486393 
L 369.436208 181.934324 
L 370.557966 183.063979 
L 370.903123 183.037054 
L 371.334568 182.688411 
L 372.370037 181.657538 
L 372.801483 181.549796 
L 373.232928 181.71144 
L 373.750663 182.209071 
L 374.613554 183.132913 
L 374.95871 183.198608 
L 375.303867 183.006242 
L 376.857071 181.696387 
L 377.288516 181.815426 
L 377.806251 182.281026 
L 378.755431 183.260957 
L 379.100587 183.275704 
L 379.445744 183.038196 
L 380.74008 181.849129 
L 381.085236 181.844082 
L 381.516682 182.087376 
L 382.120706 182.756024 
L 382.724729 183.334417 
L 383.069886 183.364525 
L 383.415042 183.136348 
L 384.709379 181.960519 
L 385.054535 181.965603 
L 385.48598 182.222927 
L 386.262582 183.095413 
L 386.694028 183.426673 
L 387.039184 183.408905 
L 387.47063 183.052568 
L 388.41981 182.122441 
L 388.851255 182.041624 
L 389.282701 182.248333 
L 389.886725 182.891352 
L 390.490748 183.465278 
L 390.835905 183.491002 
L 391.181061 183.25872 
L 392.389108 182.149724 
L 392.734265 182.138448 
L 393.16571 182.383533 
L 393.856023 183.150835 
L 394.373758 183.561119 
L 394.718914 183.517419 
L 395.15036 183.137798 
L 396.013251 182.288182 
L 396.444696 182.197632 
L 396.789852 182.340636 
L 397.307587 182.845126 
L 398.084189 183.60244 
L 398.429345 183.590873 
L 398.774502 183.324141 
L 399.809971 182.324399 
L 400.155127 182.266968 
L 400.500284 182.403501 
L 401.018018 182.90433 
L 401.708331 183.61777 
L 402.053487 183.669581 
L 402.398644 183.444775 
L 403.606691 182.34742 
L 403.951848 182.360695 
L 404.383293 182.645809 
L 405.591341 183.719688 
L 405.936497 183.572209 
L 406.62681 182.830672 
L 407.144544 182.443594 
L 407.489701 182.410056 
L 407.834857 182.573631 
L 408.352592 183.098979 
L 408.956615 183.695062 
L 409.301772 183.741777 
L 409.646928 183.51252 
L 410.819311 182.454262 
L 411.210105 182.4876 
L 411.600899 182.764365 
L 412.770761 183.801776 
L 413.096002 183.666367 
L 413.680933 183.040011 
L 414.268385 182.54808 
L 414.656658 182.506877 
L 415.047452 182.71919 
L 415.697935 183.432358 
L 416.154282 183.809797 
L 416.479524 183.79957 
L 416.870318 183.481301 
L 417.78049 182.610181 
L 418.171285 182.56305 
L 418.562079 182.772725 
L 419.212562 183.482109 
L 419.666388 183.848782 
L 419.991629 183.830103 
L 420.382424 183.505187 
L 421.229565 182.683865 
L 421.620359 182.613501 
L 422.008632 182.8008 
L 422.596084 183.423428 
L 423.115462 183.878373 
L 423.440704 183.874137 
L 423.831498 183.561243 
L 424.74167 182.716152 
L 425.132464 182.690052 
L 425.523259 182.920727 
L 426.758672 183.942793 
L 427.083914 183.769442 
L 428.384881 182.727387 
L 428.775675 182.860166 
L 429.295053 183.362746 
L 429.948058 183.958915 
L 430.273299 183.942069 
L 430.661572 183.622938 
L 431.508713 182.840029 
L 431.899507 182.80465 
L 432.28778 183.02786 
L 433.525716 184.011725 
L 433.850957 183.820281 
L 435.020819 182.847867 
L 435.34606 182.903573 
L 435.736855 183.197008 
L 436.712579 184.056953 
L 437.037821 183.959565 
L 437.55972 183.440653 
L 438.144651 182.956824 
L 438.535445 182.927787 
L 438.92624 183.16206 
L 440.096101 184.097364 
L 440.421343 183.917714 
L 441.593725 182.971895 
L 441.918967 183.043411 
L 442.372792 183.420349 
L 443.154381 184.128438 
L 443.479623 184.082803 
L 443.870417 183.740166 
L 444.586453 183.091486 
L 444.974726 183.043723 
L 445.36552 183.26323 
L 446.537902 184.172436 
L 446.863144 183.982056 
L 447.967453 183.088453 
L 448.292695 183.14946 
L 448.683489 183.451454 
L 449.53063 184.207045 
L 449.855871 184.144628 
L 450.309697 183.724003 
L 450.897149 183.209867 
L 451.285422 183.153345 
L 451.676216 183.367155 
L 452.783046 184.246939 
L 453.108288 184.084921 
L 454.278149 183.191484 
L 454.603391 183.287543 
L 455.059738 183.691051 
L 455.710221 184.263507 
L 456.035463 184.233714 
L 456.426257 183.904023 
L 457.142293 183.28783 
L 457.467534 183.255884 
L 457.858329 183.470163 
L 458.962637 184.315725 
L 459.287879 184.134748 
L 460.329157 183.302524 
L 460.654398 183.357288 
L 461.045192 183.657223 
L 461.826781 184.343522 
L 462.152022 184.287789 
L 462.605848 183.874095 
L 463.1933 183.389729 
L 463.518542 183.353332 
L 463.906815 183.562632 
L 464.948092 184.385442 
L 465.273334 184.232026 
L 466.380164 183.382753 
L 466.705405 183.469092 
L 467.161752 183.867762 
L 467.746683 184.38685 
L 468.071925 184.376969 
L 468.462719 184.05859 
L 469.178755 183.461348 
L 469.503996 183.448275 
L 469.892269 183.684648 
L 470.804963 184.443175 
L 471.130205 184.337137 
L 472.365618 183.470809 
L 472.69086 183.613444 
L 473.341343 184.250868 
L 473.732138 184.468864 
L 474.057379 184.358381 
L 475.292793 183.510854 
L 475.683587 183.716092 
L 476.724865 184.488985 
L 477.050107 184.30573 
L 478.025832 183.541824 
L 478.351073 183.602942 
L 478.80742 183.979975 
L 479.457903 184.510234 
L 479.717592 184.475016 
L 480.108387 184.152361 
L 480.780403 183.604232 
L 481.103784 183.594633 
L 481.49433 183.838577 
L 482.340098 184.539108 
L 482.601291 184.485121 
L 483.056513 184.081274 
L 483.641088 183.635728 
L 483.966957 183.63757 
L 484.357503 183.894804 
L 485.20327 184.569549 
L 485.52914 184.450144 
L 486.700777 183.655338 
L 487.024159 183.806455 
L 488.131119 184.58505 
L 488.456989 184.376467 
L 489.302756 183.702901 
L 489.628626 183.735939 
L 490.016684 184.022255 
L 490.733099 184.620589 
L 490.994292 184.584995 
L 491.384838 184.261132 
L 491.969412 183.773758 
L 492.295282 183.73819 
L 492.685827 183.963065 
L 493.596272 184.652182 
L 493.922141 184.495626 
L 494.897261 183.760624 
L 495.223131 183.842581 
L 495.678353 184.239903 
L 496.198251 184.660056 
L 496.459444 184.646933 
L 496.84999 184.339959 
L 497.499241 183.816842 
L 497.82511 183.816261 
L 498.215656 184.078521 
L 498.996747 184.698743 
L 499.255453 184.629899 
L 499.777839 184.148305 
L 500.233061 183.839375 
L 500.556443 183.853197 
L 500.946988 184.127725 
L 501.663403 184.711976 
L 501.924596 184.665737 
L 502.379818 184.266309 
L 502.899717 183.873422 
L 503.225586 183.870432 
L 503.616132 184.131258 
L 504.397223 184.736654 
L 504.720605 184.612865 
L 505.762889 183.87148 
L 506.088759 183.99139 
L 506.73801 184.598605 
L 507.063879 184.755675 
L 507.322585 184.6785 
L 507.909647 184.135147 
L 508.300193 183.908705 
L 508.626062 183.948127 
L 509.01412 184.24448 
L 509.665859 184.767345 
L 509.927052 184.723529 
L 510.382274 184.325424 
L 510.902172 183.945295 
L 511.228042 183.957506 
L 511.618587 184.234288 
L 512.332515 184.791472 
L 512.593708 184.724699 
L 513.113606 184.249252 
L 513.568828 183.960174 
L 513.894697 183.999062 
L 514.285243 184.299089 
L 514.934494 184.806308 
L 515.195687 184.751429 
L 515.650909 184.346913 
L 516.170808 183.986488 
L 516.496677 184.018652 
L 516.887223 184.313242 
L 517.538961 184.821953 
L 517.797667 184.769281 
L 518.252889 184.367512 
L 518.775275 184.008678 
L 519.098657 184.043741 
L 519.489202 184.340542 
L 520.140941 184.839576 
L 520.399646 184.779101 
L 520.857356 184.37045 
L 521.312578 184.044765 
L 521.63596 184.048728 
L 522.026506 184.319838 
L 522.678244 184.85059 
L 522.93695 184.818378 
L 523.327495 184.496934 
L 523.914558 184.063235 
L 524.240427 184.090523 
L 524.628485 184.381135 
L 525.280224 184.881062 
L 525.541417 184.816308 
L 526.061315 184.34565 
L 526.516537 184.07719 
L 526.842407 184.138304 
L 527.297629 184.523803 
L 527.817527 184.896523 
L 528.07872 184.836952 
L 528.598619 184.368749 
L 529.053841 184.099303 
L 529.37971 184.160639 
L 529.834932 184.547324 
L 530.290154 184.901209 
L 530.548859 184.885161 
L 530.939405 184.572042 
L 531.526467 184.13025 
L 531.852337 184.155028 
L 532.240395 184.445775 
L 532.827457 184.92003 
L 533.086163 184.890217 
L 533.476708 184.566097 
L 533.999094 184.159528 
L 534.322476 184.154344 
L 534.713022 184.422136 
L 535.36476 184.93814 
L 535.625953 184.885919 
L 536.081176 184.482004 
L 536.536398 184.164153 
L 536.859779 184.181946 
L 536.859779 184.181946 
" style="fill:none;stroke:#ff7f0e;stroke-linecap:square;stroke-width:1.5;"/>
   </g>
   <g id="patch_3">
    <path d="M 42.055367 189.821535 
L 42.055367 7.2 
" style="fill:none;stroke:#000000;stroke-linecap:square;stroke-linejoin:miter;stroke-width:0.8;"/>
   </g>
   <g id="patch_4">
    <path d="M 561.6 189.821535 
L 561.6 7.2 
" style="fill:none;stroke:#000000;stroke-linecap:square;stroke-linejoin:miter;stroke-width:0.8;"/>
   </g>
   <g id="patch_5">
    <path d="M 42.055367 189.821535 
L 561.6 189.821535 
" style="fill:none;stroke:#000000;stroke-linecap:square;stroke-linejoin:miter;stroke-width:0.8;"/>
   </g>
   <g id="patch_6">
    <path d="M 42.055367 7.2 
L 561.6 7.2 
" style="fill:none;stroke:#000000;stroke-linecap:square;stroke-linejoin:miter;stroke-width:0.8;"/>
   </g>
   <g id="legend_1">
    <g id="line2d_14">
     <path d="M 426.099823 19.7 
L 446.099823 19.7 
" style="fill:none;stroke:#1f77b4;stroke-linecap:square;stroke-width:1.5;"/>
    </g>
    <g id="line2d_15"/>
    <g id="text_8">
     <!-- $\chi = 1.0$,\ \ $a_i = 0.8\ R_{\mathrm{RLOF}}$ -->
     <defs>
      <path d="M 39.09375 49.546875 
L 26.203125 25.90625 
L 22.59375 40.8125 
C 21.09375 47.0625 17.296875 50.84375 12.40625 50.84375 
C 6.40625 50.84375 2.203125 44.1875 1.203125 33.15625 
L 3.90625 33.15625 
C 4.59375 39.109375 7.59375 43 11.296875 43 
C 13.703125 43 16.296875 41.40625 17.90625 39.015625 
C 18.703125 37.71875 19.59375 35.4375 20.203125 32.75 
L 23.203125 20.4375 
L 1.40625 -19.109375 
L 12 -19.109375 
L 26.203125 7.125 
L 27.796875 -1.515625 
C 29.296875 -8.96875 29.59375 -10.359375 30.296875 -12.359375 
C 32.40625 -17.921875 35.796875 -21 39.90625 -21 
C 43.5 -21 47.09375 -18.421875 49.296875 -14.546875 
C 51 -11.453125 51.90625 -7.78125 52.203125 -2.609375 
L 49.796875 -2.609375 
C 48.796875 -6.09375 48.40625 -7.078125 47.703125 -8.078125 
C 46.296875 -10.46875 43.90625 -11.75 41.296875 -11.75 
C 36.59375 -11.75 34.09375 -7.6875 31.09375 4.625 
L 29.203125 12.484375 
L 49.5 49.546875 
z
" id="Standard_Symbols_L-99"/>
      <path d="M 68.703125 32 
C 70.203125 32 72.09375 32 72.09375 34.015625 
C 72.09375 36.015625 70.203125 36.015625 68.796875 36.015625 
L 8.90625 36.015625 
C 7.5 36.015625 5.59375 36.015625 5.59375 34.015625 
C 5.59375 32 7.5 32 9 32 
z
M 68.796875 13 
C 70.203125 13 72.09375 13 72.09375 15.015625 
C 72.09375 17.015625 70.203125 17.015625 68.703125 17.015625 
L 9 17.015625 
C 7.5 17.015625 5.59375 17.015625 5.59375 15.015625 
C 5.59375 13 7.5 13 8.90625 13 
z
" id="CMR10-61"/>
      <path d="M 19.203125 5.28125 
C 19.203125 8.15625 16.796875 10.546875 13.90625 10.546875 
C 11 10.546875 8.59375 8.15625 8.59375 5.28125 
C 8.59375 2.390625 11 0 13.90625 0 
C 16.796875 0 19.203125 2.390625 19.203125 5.28125 
z
" id="CMMI10-58"/>
      <path d="M 8.296875 -13.890625 
C 15 -10.59375 19.5 -4.5 19.5 1.5 
C 19.5 6.5 16 10.40625 11.5 10.40625 
C 8 10.40625 5.59375 8.109375 5.59375 4.703125 
C 5.59375 1.5 7.90625 -0.390625 11.5 -0.390625 
C 12.09375 -0.390625 12.796875 -0.296875 13.40625 -0.203125 
C 14.09375 0 14.09375 0 14.203125 0 
C 15 0 15.59375 -0.59375 15.59375 -1.390625 
C 15.59375 -4.59375 12.796875 -8.296875 7.40625 -12 
z
" id="Nimbus_Roman_No9_L_Regular-44"/>
      <path d="M 46.40625 11.0625 
C 44.90625 9.5625 44.296875 9.0625 43.59375 8.265625 
C 40.59375 5.1875 39.296875 4.1875 38.40625 4.1875 
C 37.59375 4.1875 37 4.78125 37 5.484375 
C 37 7.484375 41.203125 24.5 45.90625 41.609375 
C 46.203125 42.609375 46.296875 42.8125 46.5 43.703125 
L 45.796875 44 
L 39.703125 43.3125 
L 39.40625 43.015625 
L 38.296875 38.234375 
C 37.5 41.90625 34.59375 44 30.296875 44 
C 17.09375 44 1.703125 25.78125 1.703125 10.0625 
C 1.703125 3.078125 5.5 -1 11.90625 -1 
C 18.90625 -1 23.203125 2.296875 32 14.640625 
C 30 6.828125 29.703125 5.515625 29.703125 3.109375 
C 29.703125 0.203125 30.90625 -1 33.703125 -1 
C 37.703125 -1 40.203125 0.90625 47.59375 10.0625 
z
M 30.90625 41.71875 
C 34.296875 41.71875 36.5 39.328125 36.5 35.828125 
C 36.5 27.453125 31.5 15.65625 24.59375 8.28125 
C 22.203125 5.578125 18.796875 3.890625 15.90625 3.890625 
C 12.40625 3.890625 10.09375 6.765625 10.09375 11.34375 
C 10.09375 16.703125 13.90625 26.921875 18.203125 33.078125 
C 22.203125 38.84375 26.90625 42.015625 30.90625 41.71875 
z
" id="Nimbus_Roman_No9_L_Regular_Italic-97"/>
      <path d="M 22.203125 11.515625 
C 19.796875 8.3125 19.09375 7.515625 18.09375 6.40625 
C 16.40625 4.703125 14.90625 3.703125 14 3.703125 
C 13.203125 3.703125 12.40625 4.5 12.40625 5.203125 
C 12.40625 6.21875 12.703125 7.703125 13.40625 9.609375 
C 13.40625 9.921875 13.703125 10.625 13.90625 11.421875 
L 13.90625 11.609375 
L 14 11.8125 
L 22.796875 44.078125 
L 22.5 44.265625 
C 12.40625 42.359375 10.40625 42.0625 6.5 41.765625 
L 6.5 40.0625 
C 11.796875 40.0625 12.796875 39.765625 12.796875 37.765625 
C 12.796875 36.96875 12.5 35.359375 11.90625 33.359375 
L 7.09375 15.625 
C 5.5 9.8125 4.90625 6.71875 4.90625 4.703125 
C 4.90625 1 6.5 -1 9.5 -1 
C 14.09375 -1 17.796875 2 23.5 10.421875 
z
M 21.40625 65.578125 
C 18.703125 65.578125 16.703125 63.28125 16.703125 60.28125 
C 16.703125 57.09375 18.59375 55 21.5 55 
C 24.09375 55 26.40625 57.296875 26.40625 60.078125 
C 26.40625 62.984375 24.09375 65.578125 21.40625 65.578125 
z
" id="Nimbus_Roman_No9_L_Regular_Italic-105"/>
      <path d="M 65.90625 1.890625 
C 62.09375 2.1875 60.09375 3.203125 57.203125 6.625 
L 36.59375 32.203125 
C 43.296875 33.484375 46.296875 34.671875 49.59375 37.3125 
C 52.796875 39.890625 54.703125 44.03125 54.703125 48.640625 
C 54.703125 52.890625 53.40625 56.53125 50.796875 59.390625 
C 47 63.421875 38.703125 66 29.296875 66 
L 1.703125 66 
L 1.703125 64.09375 
C 9.203125 63.296875 10.203125 62.203125 10.203125 55.125 
L 10.203125 11.953125 
C 10.203125 3.6875 9.203125 2.484375 1.703125 1.890625 
L 1.703125 0 
L 29.40625 0 
L 29.40625 2.09375 
C 21.703125 2.09375 20.40625 3.421875 20.40625 10.8125 
L 20.40625 31 
L 26 31 
L 49.796875 0 
L 65.90625 0 
z
M 20.40625 58.78125 
C 20.40625 61.515625 21.5 62.296875 25.5 62.296875 
C 38 62.296875 43.796875 58.0625 43.796875 48.796875 
C 43.796875 43.859375 41.703125 39.71875 38.09375 37.859375 
C 33.5 35.28125 30 34.703125 20.40625 34.703125 
z
" id="Nimbus_Roman_No9_L_Regular-82"/>
      <path d="M 57.296875 17.40625 
C 55.59375 13.59375 54.203125 11.296875 52.703125 9.59375 
C 49.203125 5.703125 43.703125 3.90625 35.40625 3.90625 
L 28.703125 3.90625 
C 21.40625 3.90625 20.09375 4.5 20.09375 8.015625 
L 20.09375 55.46875 
C 20.09375 62.609375 21.5 64 29.40625 64 
L 29.40625 66.203125 
L 1.203125 66.203125 
L 1.203125 64.296875 
C 8.59375 63.703125 9.90625 62.28125 9.90625 55.25 
L 9.90625 10.640625 
C 9.90625 3.59375 8.5 2.09375 1.203125 2.09375 
L 1.203125 0 
L 55 0 
L 59.796875 17.40625 
z
" id="Nimbus_Roman_No9_L_Regular-76"/>
      <path d="M 36.09375 68 
C 17 68 3.40625 53.609375 3.40625 33.5 
C 3.40625 24.109375 6.59375 15 12 9.203125 
C 17.796875 2.90625 26.703125 -1 35.5 -1 
C 55.203125 -1 68.796875 13 68.796875 33.109375 
C 68.796875 43 65.90625 51.5 60.40625 57.5 
C 54.09375 64.40625 45.703125 68 36.09375 68 
z
M 36.09375 64.40625 
C 40.703125 64.40625 45.296875 62.609375 48.90625 59.40625 
C 54.296875 54.5 57.40625 45.109375 57.40625 33.203125 
C 57.40625 27.3125 56.09375 20.40625 54.09375 15.203125 
C 53.203125 12.703125 51.5 10.203125 49.203125 7.90625 
C 45.703125 4.40625 41.203125 2.609375 35.90625 2.609375 
C 31.296875 2.609375 26.796875 4.40625 23.296875 7.5 
C 18.09375 12.109375 14.796875 22.203125 14.796875 33.3125 
C 14.796875 43.5 17.59375 53.203125 21.796875 57.90625 
C 25.703125 62.203125 30.59375 64.40625 36.09375 64.40625 
z
" id="Nimbus_Roman_No9_L_Regular-79"/>
      <path d="M 47.90625 23 
L 47.90625 46.203125 
L 45.59375 46.203125 
C 44.40625 38.453125 42.59375 37 34.59375 37 
L 20.09375 37 
L 20.09375 58.84375 
C 20.09375 61.609375 20.59375 62.203125 23.296875 62.203125 
L 36.90625 62.203125 
C 48.203125 62.203125 50.40625 60.71875 52.09375 51.78125 
L 54.59375 51.78125 
L 54.296875 66 
L 1.203125 66 
L 1.203125 64.09375 
C 8.59375 63.5 9.90625 62.09375 9.90625 55.078125 
L 9.90625 11.703125 
C 9.90625 3.390625 8.796875 2.09375 1.203125 2.09375 
L 1.203125 0 
L 29.203125 0 
L 29.203125 2.09375 
C 21.5 2.09375 20.09375 3.515625 20.09375 10.8125 
L 20.09375 32.90625 
L 34.59375 32.90625 
C 42.703125 32.90625 44.40625 31.359375 45.59375 23 
z
" id="Nimbus_Roman_No9_L_Regular-70"/>
     </defs>
     <g transform="translate(454.099823 23.2)scale(0.1 -0.1)">
      <use transform="scale(0.996264)" xlink:href="#Standard_Symbols_L-99"/>
      <use transform="translate(85.102649 0)scale(0.996264)" xlink:href="#CMR10-61"/>
      <use transform="translate(184.650502 0)scale(0.996264)" xlink:href="#Nimbus_Roman_No9_L_Regular-49"/>
      <use transform="translate(234.463702 0)scale(0.996264)" xlink:href="#CMMI10-58"/>
      <use transform="translate(262.059209 0)scale(0.996264)" xlink:href="#Nimbus_Roman_No9_L_Regular-48"/>
      <use transform="translate(311.87241 0)scale(0.996264)" xlink:href="#Nimbus_Roman_No9_L_Regular-44"/>
      <use transform="translate(386.59221 0)scale(0.996264)" xlink:href="#Nimbus_Roman_No9_L_Regular_Italic-97"/>
      <use transform="translate(436.405411 -14.943915)scale(0.737241)" xlink:href="#Nimbus_Roman_No9_L_Regular_Italic-105"/>
      <use transform="translate(479.537261 0)scale(0.996264)" xlink:href="#CMR10-61"/>
      <use transform="translate(579.085114 0)scale(0.996264)" xlink:href="#Nimbus_Roman_No9_L_Regular-48"/>
      <use transform="translate(628.898315 0)scale(0.996264)" xlink:href="#CMMI10-58"/>
      <use transform="translate(656.493821 0)scale(0.996264)" xlink:href="#Nimbus_Roman_No9_L_Regular-56"/>
      <use transform="translate(731.213622 0)scale(0.996264)" xlink:href="#Nimbus_Roman_No9_L_Regular_Italic-82"/>
      <use transform="translate(792.085253 -15.050129)scale(0.737241)" xlink:href="#Nimbus_Roman_No9_L_Regular-82"/>
      <use transform="translate(841.258641 -15.050129)scale(0.737241)" xlink:href="#Nimbus_Roman_No9_L_Regular-76"/>
      <use transform="translate(886.303985 -15.050129)scale(0.737241)" xlink:href="#Nimbus_Roman_No9_L_Regular-79"/>
      <use transform="translate(939.53257 -15.050129)scale(0.737241)" xlink:href="#Nimbus_Roman_No9_L_Regular-70"/>
     </g>
    </g>
    <g id="line2d_16">
     <path d="M 426.099823 34.066066 
L 446.099823 34.066066 
" style="fill:none;stroke:#ff7f0e;stroke-linecap:square;stroke-width:1.5;"/>
    </g>
    <g id="line2d_17"/>
    <g id="text_9">
     <!-- $\chi = 1.0$,\ \ $a_i = 0.8\ R_{\mathrm{RLOF}}$ -->
     <g transform="translate(454.099823 37.566066)scale(0.1 -0.1)">
      <use transform="scale(0.996264)" xlink:href="#Standard_Symbols_L-99"/>
      <use transform="translate(85.102649 0)scale(0.996264)" xlink:href="#CMR10-61"/>
      <use transform="translate(184.650502 0)scale(0.996264)" xlink:href="#Nimbus_Roman_No9_L_Regular-49"/>
      <use transform="translate(234.463702 0)scale(0.996264)" xlink:href="#CMMI10-58"/>
      <use transform="translate(262.059209 0)scale(0.996264)" xlink:href="#Nimbus_Roman_No9_L_Regular-48"/>
      <use transform="translate(311.87241 0)scale(0.996264)" xlink:href="#Nimbus_Roman_No9_L_Regular-44"/>
      <use transform="translate(386.59221 0)scale(0.996264)" xlink:href="#Nimbus_Roman_No9_L_Regular_Italic-97"/>
      <use transform="translate(436.405411 -14.943915)scale(0.737241)" xlink:href="#Nimbus_Roman_No9_L_Regular_Italic-105"/>
      <use transform="translate(479.537261 0)scale(0.996264)" xlink:href="#CMR10-61"/>
      <use transform="translate(579.085114 0)scale(0.996264)" xlink:href="#Nimbus_Roman_No9_L_Regular-48"/>
      <use transform="translate(628.898315 0)scale(0.996264)" xlink:href="#CMMI10-58"/>
      <use transform="translate(656.493821 0)scale(0.996264)" xlink:href="#Nimbus_Roman_No9_L_Regular-56"/>
      <use transform="translate(731.213622 0)scale(0.996264)" xlink:href="#Nimbus_Roman_No9_L_Regular_Italic-82"/>
      <use transform="translate(792.085253 -15.050129)scale(0.737241)" xlink:href="#Nimbus_Roman_No9_L_Regular-82"/>
      <use transform="translate(841.258641 -15.050129)scale(0.737241)" xlink:href="#Nimbus_Roman_No9_L_Regular-76"/>
      <use transform="translate(886.303985 -15.050129)scale(0.737241)" xlink:href="#Nimbus_Roman_No9_L_Regular-79"/>
      <use transform="translate(939.53257 -15.050129)scale(0.737241)" xlink:href="#Nimbus_Roman_No9_L_Regular-70"/>
     </g>
    </g>
   </g>
  </g>
  <g id="axes_2">
   <g id="patch_7">
    <path d="M 42.055367 388.777187 
L 561.6 388.777187 
L 561.6 206.155652 
L 42.055367 206.155652 
z
" style="fill:#ffffff;"/>
   </g>
   <g id="matplotlib.axis_3">
    <g id="xtick_6">
     <g id="line2d_18">
      <g>
       <use style="stroke:#000000;stroke-width:0.8;" x="42.055367" xlink:href="#mf61be45004" y="388.777187"/>
      </g>
     </g>
     <g id="text_10">
      <!-- $\mathdefault{0}$ -->
      <g transform="translate(39.564707 402.531765)scale(0.1 -0.1)">
       <use transform="scale(0.996264)" xlink:href="#Nimbus_Roman_No9_L_Regular-48"/>
      </g>
     </g>
    </g>
    <g id="xtick_7">
     <g id="line2d_19">
      <g>
       <use style="stroke:#000000;stroke-width:0.8;" x="154.478586" xlink:href="#mf61be45004" y="388.777187"/>
      </g>
     </g>
     <g id="text_11">
      <!-- $\mathdefault{20}$ -->
      <g transform="translate(149.497266 402.531765)scale(0.1 -0.1)">
       <use transform="scale(0.996264)" xlink:href="#Nimbus_Roman_No9_L_Regular-50"/>
       <use transform="translate(49.8132 0)scale(0.996264)" xlink:href="#Nimbus_Roman_No9_L_Regular-48"/>
      </g>
     </g>
    </g>
    <g id="xtick_8">
     <g id="line2d_20">
      <g>
       <use style="stroke:#000000;stroke-width:0.8;" x="266.901805" xlink:href="#mf61be45004" y="388.777187"/>
      </g>
     </g>
     <g id="text_12">
      <!-- $\mathdefault{40}$ -->
      <g transform="translate(261.920485 402.531765)scale(0.1 -0.1)">
       <use transform="scale(0.996264)" xlink:href="#Nimbus_Roman_No9_L_Regular-52"/>
       <use transform="translate(49.8132 0)scale(0.996264)" xlink:href="#Nimbus_Roman_No9_L_Regular-48"/>
      </g>
     </g>
    </g>
    <g id="xtick_9">
     <g id="line2d_21">
      <g>
       <use style="stroke:#000000;stroke-width:0.8;" x="379.325024" xlink:href="#mf61be45004" y="388.777187"/>
      </g>
     </g>
     <g id="text_13">
      <!-- $\mathdefault{60}$ -->
      <g transform="translate(374.343704 402.531765)scale(0.1 -0.1)">
       <use transform="scale(0.996264)" xlink:href="#Nimbus_Roman_No9_L_Regular-54"/>
       <use transform="translate(49.8132 0)scale(0.996264)" xlink:href="#Nimbus_Roman_No9_L_Regular-48"/>
      </g>
     </g>
    </g>
    <g id="xtick_10">
     <g id="line2d_22">
      <g>
       <use style="stroke:#000000;stroke-width:0.8;" x="491.748243" xlink:href="#mf61be45004" y="388.777187"/>
      </g>
     </g>
     <g id="text_14">
      <!-- $\mathdefault{80}$ -->
      <g transform="translate(486.766923 402.531765)scale(0.1 -0.1)">
       <use transform="scale(0.996264)" xlink:href="#Nimbus_Roman_No9_L_Regular-56"/>
       <use transform="translate(49.8132 0)scale(0.996264)" xlink:href="#Nimbus_Roman_No9_L_Regular-48"/>
      </g>
     </g>
    </g>
    <g id="text_15">
     <!-- Time / d -->
     <defs>
      <path d="M 25.40625 62 
L 25.40625 11.734375 
C 25.40625 3.1875 24.296875 2.09375 16 2.09375 
L 16 0 
L 45.203125 0 
L 45.203125 2.09375 
C 37 2.09375 35.59375 3.390625 35.59375 10.734375 
L 35.59375 62 
L 41 62 
C 52.40625 62 54.59375 60.203125 56.90625 49.203125 
L 59.296875 49.203125 
L 58.703125 66.203125 
L 2.296875 66.203125 
L 1.703125 49.203125 
L 4.09375 49.203125 
C 6.5 60.09375 8.796875 62 20 62 
z
" id="Nimbus_Roman_No9_L_Regular-84"/>
      <path d="M 1.90625 39.796875 
C 3.203125 40.09375 4 40.203125 5.09375 40.203125 
C 7.703125 40.203125 8.59375 38.59375 8.59375 33.78125 
L 8.59375 8.421875 
C 8.59375 3 7.203125 1.5 1.59375 1.5 
L 1.59375 0 
L 23.796875 0 
L 23.796875 1.5 
C 18.5 1.5 17 2.59375 17 6.53125 
L 17 34.90625 
C 17 35.09375 17.796875 36.09375 18.5 36.796875 
C 21 39.09375 25.296875 40.796875 28.796875 40.796875 
C 33.203125 40.796875 35.40625 37.265625 35.40625 30.1875 
L 35.40625 8.25 
C 35.40625 2.609375 34.296875 1.5 28.59375 1.5 
L 28.59375 0 
L 51 0 
L 51 1.5 
C 45.296875 1.5 43.796875 3.203125 43.796875 9.421875 
L 43.796875 34.703125 
C 46.796875 39 50.09375 40.796875 54.703125 40.796875 
C 60.40625 40.796875 62.203125 38.09375 62.203125 29.796875 
L 62.203125 8.703125 
C 62.203125 3 61.40625 2.203125 55.59375 1.5 
L 55.59375 0 
L 77.5 0 
L 77.5 1.5 
L 74.90625 1.796875 
C 71.90625 1.796875 70.59375 3.59375 70.59375 7.5 
L 70.59375 28.15625 
C 70.59375 39.984375 66.703125 46 59 46 
C 53.203125 46 48.09375 43.40625 42.703125 37.609375 
C 40.90625 43.296875 37.5 46 32.09375 46 
C 27.703125 46 24.90625 44.59375 16.59375 38.296875 
L 16.59375 45.796875 
L 15.90625 46 
C 10.796875 44.09375 7.40625 43 1.90625 41.5 
z
" id="Nimbus_Roman_No9_L_Regular-109"/>
      <path d="M 34.40625 -1 
L 49.09375 4.203125 
L 49.09375 5.703125 
C 47.296875 5.703125 47.09375 5.703125 46.796875 5.703125 
C 43.203125 5.703125 42.40625 6.796875 42.40625 11.421875 
L 42.40625 68.1875 
L 41.90625 68.390625 
C 37.09375 66.6875 33.59375 65.6875 27.203125 64 
L 27.203125 62.40625 
C 28 62.5 28.59375 62.5 29.40625 62.5 
C 33.09375 62.5 34 61.5 34 57.375 
L 34 41.703125 
C 30.203125 44.90625 27.5 46 23.5 46 
C 12 46 2.703125 34.703125 2.703125 20.5 
C 2.703125 7.703125 10.203125 -1 21.203125 -1 
C 26.796875 -1 30.59375 1 34 5.703125 
L 34 -0.703125 
z
M 34 10.203125 
C 34 9.5 33.296875 8.296875 32.296875 7.203125 
C 30.5 5.203125 28 4.203125 25.09375 4.203125 
C 16.796875 4.203125 11.296875 12.203125 11.296875 24.5 
C 11.296875 35.796875 16.203125 43.203125 23.796875 43.203125 
C 29.09375 43.203125 34 38.5 34 33.203125 
z
" id="Nimbus_Roman_No9_L_Regular-100"/>
     </defs>
     <g transform="translate(285.120529 415.443171)scale(0.1 -0.1)">
      <use transform="scale(0.996264)" xlink:href="#Nimbus_Roman_No9_L_Regular-84"/>
      <use transform="translate(57.384904 0)scale(0.996264)" xlink:href="#Nimbus_Roman_No9_L_Regular-105"/>
      <use transform="translate(85.080074 0)scale(0.996264)" xlink:href="#Nimbus_Roman_No9_L_Regular-109"/>
      <use transform="translate(162.588444 0)scale(0.996264)" xlink:href="#Nimbus_Roman_No9_L_Regular-101"/>
      <use transform="translate(231.728613 0)scale(0.996264)" xlink:href="#Nimbus_Roman_No9_L_Regular-47"/>
      <use transform="translate(284.330383 0)scale(0.996264)" xlink:href="#Nimbus_Roman_No9_L_Regular-100"/>
     </g>
    </g>
   </g>
   <g id="matplotlib.axis_4">
    <g id="ytick_7">
     <g id="line2d_23">
      <g>
       <use style="stroke:#000000;stroke-width:0.8;" x="42.055367" xlink:href="#m2b39912df5" y="388.777187"/>
      </g>
     </g>
     <g id="text_16">
      <!-- $\mathdefault{0}$ -->
      <g transform="translate(30.074047 392.154476)scale(0.1 -0.1)">
       <use transform="scale(0.996264)" xlink:href="#Nimbus_Roman_No9_L_Regular-48"/>
      </g>
     </g>
    </g>
    <g id="ytick_8">
     <g id="line2d_24">
      <g>
       <use style="stroke:#000000;stroke-width:0.8;" x="42.055367" xlink:href="#m2b39912df5" y="362.595311"/>
      </g>
     </g>
     <g id="text_17">
      <!-- $\mathdefault{1}$ -->
      <g transform="translate(30.074047 365.9726)scale(0.1 -0.1)">
       <use transform="scale(0.996264)" xlink:href="#Nimbus_Roman_No9_L_Regular-49"/>
      </g>
     </g>
    </g>
    <g id="ytick_9">
     <g id="line2d_25">
      <g>
       <use style="stroke:#000000;stroke-width:0.8;" x="42.055367" xlink:href="#m2b39912df5" y="336.413434"/>
      </g>
     </g>
     <g id="text_18">
      <!-- $\mathdefault{2}$ -->
      <g transform="translate(30.074047 339.790723)scale(0.1 -0.1)">
       <use transform="scale(0.996264)" xlink:href="#Nimbus_Roman_No9_L_Regular-50"/>
      </g>
     </g>
    </g>
    <g id="ytick_10">
     <g id="line2d_26">
      <g>
       <use style="stroke:#000000;stroke-width:0.8;" x="42.055367" xlink:href="#m2b39912df5" y="310.231558"/>
      </g>
     </g>
     <g id="text_19">
      <!-- $\mathdefault{3}$ -->
      <defs>
       <path d="M 15.296875 33.40625 
C 21.203125 33.40625 23.5 33.203125 25.90625 32.3125 
C 32.09375 30.109375 36 24.40625 36 17.5 
C 36 9.109375 30.296875 2.609375 22.90625 2.609375 
C 20.203125 2.609375 18.203125 3.3125 14.5 5.703125 
C 11.5 7.5 9.796875 8.203125 8.09375 8.203125 
C 5.796875 8.203125 4.296875 6.8125 4.296875 4.703125 
C 4.296875 1.203125 8.59375 -1 15.59375 -1 
C 23.296875 -1 31.203125 1.609375 35.90625 5.703125 
C 40.59375 9.8125 43.203125 15.609375 43.203125 22.3125 
C 43.203125 27.40625 41.59375 32.109375 38.703125 35.203125 
C 36.703125 37.40625 34.796875 38.609375 30.40625 40.5 
C 37.296875 45.203125 39.796875 48.90625 39.796875 54.3125 
C 39.796875 62.40625 33.40625 68 24.203125 68 
C 19.203125 68 14.796875 66.3125 11.203125 63.109375 
C 8.203125 60.40625 6.703125 57.796875 4.5 51.796875 
L 6 51.40625 
C 10.09375 58.703125 14.59375 62 20.90625 62 
C 27.40625 62 31.90625 57.609375 31.90625 51.3125 
C 31.90625 47.703125 30.40625 44.109375 27.90625 41.609375 
C 24.90625 38.609375 22.09375 37.109375 15.296875 34.703125 
z
" id="Nimbus_Roman_No9_L_Regular-51"/>
      </defs>
      <g transform="translate(30.074047 313.608847)scale(0.1 -0.1)">
       <use transform="scale(0.996264)" xlink:href="#Nimbus_Roman_No9_L_Regular-51"/>
      </g>
     </g>
    </g>
    <g id="ytick_11">
     <g id="line2d_27">
      <g>
       <use style="stroke:#000000;stroke-width:0.8;" x="42.055367" xlink:href="#m2b39912df5" y="284.049682"/>
      </g>
     </g>
     <g id="text_20">
      <!-- $\mathdefault{4}$ -->
      <g transform="translate(30.074047 287.426971)scale(0.1 -0.1)">
       <use transform="scale(0.996264)" xlink:href="#Nimbus_Roman_No9_L_Regular-52"/>
      </g>
     </g>
    </g>
    <g id="ytick_12">
     <g id="line2d_28">
      <g>
       <use style="stroke:#000000;stroke-width:0.8;" x="42.055367" xlink:href="#m2b39912df5" y="257.867805"/>
      </g>
     </g>
     <g id="text_21">
      <!-- $\mathdefault{5}$ -->
      <defs>
       <path d="M 18.09375 59 
L 37.703125 59 
C 39.296875 59 39.703125 59.203125 40 59.90625 
L 43.796875 68.796875 
L 42.90625 69.5 
C 41.40625 67.40625 40.40625 66.90625 38.296875 66.90625 
L 17.40625 66.90625 
L 6.5 43.109375 
C 6.40625 42.90625 6.40625 42.8125 6.40625 42.609375 
C 6.40625 42.109375 6.796875 41.8125 7.59375 41.8125 
C 10.796875 41.8125 14.796875 41.109375 18.90625 39.796875 
C 30.40625 36.078125 35.703125 29.84375 35.703125 19.90625 
C 35.703125 10.25 29.59375 2.703125 21.796875 2.703125 
C 19.796875 2.703125 18.09375 3.40625 15.09375 5.625 
C 11.90625 7.9375 9.59375 8.9375 7.5 8.9375 
C 4.59375 8.9375 3.203125 7.734375 3.203125 5.21875 
C 3.203125 1.40625 7.90625 -1 15.40625 -1 
C 23.796875 -1 31 1.71875 36 6.84375 
C 40.59375 11.375 42.703125 17.09375 42.703125 24.734375 
C 42.703125 31.96875 40.796875 36.59375 35.796875 41.609375 
C 31.40625 46.046875 25.703125 48.34375 13.90625 50.453125 
z
" id="Nimbus_Roman_No9_L_Regular-53"/>
      </defs>
      <g transform="translate(30.074047 261.245094)scale(0.1 -0.1)">
       <use transform="scale(0.996264)" xlink:href="#Nimbus_Roman_No9_L_Regular-53"/>
      </g>
     </g>
    </g>
    <g id="ytick_13">
     <g id="line2d_29">
      <g>
       <use style="stroke:#000000;stroke-width:0.8;" x="42.055367" xlink:href="#m2b39912df5" y="231.685929"/>
      </g>
     </g>
     <g id="text_22">
      <!-- $\mathdefault{6}$ -->
      <g transform="translate(30.074047 235.063218)scale(0.1 -0.1)">
       <use transform="scale(0.996264)" xlink:href="#Nimbus_Roman_No9_L_Regular-54"/>
      </g>
     </g>
    </g>
    <g id="text_23">
     <!-- Semi-major axis / $R_\odot$ -->
     <defs>
      <path d="M 44.703125 68 
L 42.59375 68 
C 42.203125 65.703125 41.09375 64.609375 39.40625 64.609375 
C 38.40625 64.609375 36.703125 65 35 65.8125 
C 31.296875 67.203125 27.59375 68 24.40625 68 
C 20.09375 68 15.703125 66.3125 12.40625 63.40625 
C 8.90625 60.296875 7.09375 56.09375 7.09375 50.875 
C 7.09375 42.859375 11.5 37.265625 22.703125 31.34375 
C 29.90625 27.546875 35.09375 23.421875 37.59375 19.625 
C 38.5 18.328125 39 16.21875 39 13.8125 
C 39 7.09375 34 2.5 26.703125 2.5 
C 17.796875 2.5 11.5 8.015625 6.5 20.25 
L 4.203125 20.25 
L 7.203125 -1 
L 9.40625 -1 
C 9.5 0.890625 10.703125 2.296875 12.203125 2.296875 
C 13.296875 2.296875 15 1.90625 16.90625 1.234375 
C 20.703125 -0.21875 24.703125 -1 28.703125 -1 
C 40.203125 -1 49.09375 6.90625 49.09375 17.203125 
C 49.09375 25.40625 43.59375 31.90625 30.40625 39 
C 19.90625 44.8125 15.703125 49.203125 15.703125 54.609375 
C 15.703125 60.109375 19.90625 63.90625 26.09375 63.90625 
C 30.59375 63.90625 34.796875 62 38.296875 58.40625 
C 41.40625 55.203125 42.796875 52.609375 44.40625 46.703125 
L 46.90625 46.703125 
z
" id="Nimbus_Roman_No9_L_Regular-83"/>
      <path d="M 3.90625 25.296875 
L 3.90625 19 
L 28.5 19 
L 28.5 25.296875 
z
" id="Nimbus_Roman_No9_L_Regular-45"/>
      <path d="M 19.296875 45.421875 
L 18.796875 45.71875 
C 12.90625 43.421875 9.09375 42.140625 3.203125 40.328125 
L 3.203125 38.734375 
L 3.703125 38.828125 
C 5.203125 39.03125 6.703125 39.03125 7.703125 39.03125 
C 10 39.03125 10.90625 37.328125 10.90625 33.046875 
L 10.90625 -4.75 
C 10.90625 -12.3125 10.59375 -14.8125 9.5 -16.796875 
C 8.90625 -17.796875 7.5 -18.609375 6.09375 -18.609375 
C 4.59375 -18.609375 3.59375 -17.90625 1.90625 -15.796875 
C 0.09375 -13.5 -1.296875 -12.609375 -2.90625 -12.609375 
C -5.203125 -12.609375 -7 -14.296875 -7 -16.5 
C -7 -19.703125 -3 -22 2.40625 -22 
C 13.40625 -22 19.296875 -14.421875 19.296875 -0.234375 
z
M 14.203125 68 
C 11.5 68 9.203125 65.703125 9.203125 62.90625 
C 9.203125 60.109375 11.40625 57.796875 14.203125 57.796875 
C 17.09375 57.796875 19.40625 60 19.40625 62.90625 
C 19.40625 65.703125 17.09375 68 14.203125 68 
z
" id="Nimbus_Roman_No9_L_Regular-106"/>
      <path d="M 25 46 
C 12 46 2.90625 36.40625 2.90625 22.59375 
C 2.90625 9.09375 12.203125 -1 24.796875 -1 
C 37.40625 -1 47 9.59375 47 23.40625 
C 47 36.5 37.796875 46 25 46 
z
M 23.703125 43.203125 
C 32.09375 43.203125 38 33.59375 38 19.90625 
C 38 8.59375 33.5 1.796875 26 1.796875 
C 22.09375 1.796875 18.40625 4.203125 16.296875 8.203125 
C 13.5 13.40625 11.90625 20.40625 11.90625 27.5 
C 11.90625 37 16.59375 43.203125 23.703125 43.203125 
z
" id="Nimbus_Roman_No9_L_Regular-111"/>
      <path d="M 0.703125 39 
C 2.09375 39.296875 3 39.40625 4.203125 39.40625 
C 6.703125 39.40625 7.59375 37.796875 7.59375 33.40625 
L 7.59375 8.40625 
C 7.59375 3.40625 6.90625 2.703125 0.5 1.5 
L 0.5 0 
L 24.5 0 
L 24.5 1.59375 
C 17.703125 1.59375 16 3.109375 16 8.828125 
L 16 31.453125 
C 16 34.671875 20.296875 39.703125 23 39.703125 
C 23.59375 39.703125 24.5 39.203125 25.59375 38.203125 
C 27.203125 36.796875 28.296875 36.203125 29.59375 36.203125 
C 32 36.203125 33.5 37.90625 33.5 40.703125 
C 33.5 44 31.40625 46 28 46 
C 23.796875 46 20.90625 43.703125 16 36.609375 
L 16 45.796875 
L 15.5 46 
C 10.203125 43.796875 6.59375 42.515625 0.703125 40.609375 
z
" id="Nimbus_Roman_No9_L_Regular-114"/>
      <path d="M 27.796875 0 
L 47.90625 0 
L 47.90625 1.5 
C 44.796875 1.5 42.796875 3.09375 39.703125 7.5 
L 26.90625 27.109375 
L 35.203125 39.09375 
C 37.09375 41.796875 40.09375 43.40625 43.296875 43.40625 
L 43.296875 45 
L 27.5 45 
L 27.5 43.40625 
C 30.5 43.40625 31.5 42.8125 31.5 41.390625 
C 31.5 40.171875 30.296875 37.96875 27.796875 34.828125 
C 27.296875 34.234375 26.09375 32.421875 24.796875 30.40625 
L 23.40625 32.40625 
C 20.59375 36.59375 18.796875 40 18.796875 41.296875 
C 18.796875 42.703125 20.09375 43.40625 23.09375 43.40625 
L 23.09375 45 
L 2.40625 45 
L 2.40625 43.40625 
L 3.296875 43.40625 
C 6.296875 43.40625 7.90625 42.109375 11 37.4375 
L 20.40625 23.109375 
L 9 6.59375 
C 6 2.5 5 1.796875 1.703125 1.5 
L 1.703125 0 
L 16.203125 0 
L 16.203125 1.5 
C 13.40625 1.5 12.203125 2 12.203125 3.296875 
C 12.203125 3.90625 12.90625 5.40625 14.203125 7.40625 
L 22.09375 19.703125 
L 31.203125 5.703125 
C 31.59375 5.09375 31.796875 4.5 31.796875 3.90625 
C 31.796875 1.921875 31.09375 1.5 27.796875 1.5 
z
" id="Nimbus_Roman_No9_L_Regular-120"/>
     </defs>
     <g transform="translate(23.917218 340.04399)rotate(-90)scale(0.1 -0.1)">
      <use transform="scale(0.996264)" xlink:href="#Nimbus_Roman_No9_L_Regular-83"/>
      <use transform="translate(55.391677 0)scale(0.996264)" xlink:href="#Nimbus_Roman_No9_L_Regular-101"/>
      <use transform="translate(99.625246 0)scale(0.996264)" xlink:href="#Nimbus_Roman_No9_L_Regular-109"/>
      <use transform="translate(177.133616 0)scale(0.996264)" xlink:href="#Nimbus_Roman_No9_L_Regular-105"/>
      <use transform="translate(204.828785 0)scale(0.996264)" xlink:href="#Nimbus_Roman_No9_L_Regular-45"/>
      <use transform="translate(238.004015 0)scale(0.996264)" xlink:href="#Nimbus_Roman_No9_L_Regular-109"/>
      <use transform="translate(315.512385 0)scale(0.996264)" xlink:href="#Nimbus_Roman_No9_L_Regular-97"/>
      <use transform="translate(359.745954 0)scale(0.996264)" xlink:href="#Nimbus_Roman_No9_L_Regular-106"/>
      <use transform="translate(387.441123 0)scale(0.996264)" xlink:href="#Nimbus_Roman_No9_L_Regular-111"/>
      <use transform="translate(437.254324 0)scale(0.996264)" xlink:href="#Nimbus_Roman_No9_L_Regular-114"/>
      <use transform="translate(495.336154 0)scale(0.996264)" xlink:href="#Nimbus_Roman_No9_L_Regular-97"/>
      <use transform="translate(539.569723 0)scale(0.996264)" xlink:href="#Nimbus_Roman_No9_L_Regular-120"/>
      <use transform="translate(589.382923 0)scale(0.996264)" xlink:href="#Nimbus_Roman_No9_L_Regular-105"/>
      <use transform="translate(617.078093 0)scale(0.996264)" xlink:href="#Nimbus_Roman_No9_L_Regular-115"/>
      <use transform="translate(680.738399 0)scale(0.996264)" xlink:href="#Nimbus_Roman_No9_L_Regular-47"/>
      <use transform="translate(733.340169 0)scale(0.996264)" xlink:href="#Nimbus_Roman_No9_L_Regular_Italic-82"/>
      <use transform="translate(794.2118 -14.943915)scale(0.737241)" xlink:href="#CMSY10-12"/>
     </g>
    </g>
   </g>
   <g id="line2d_30">
    <path clip-path="url(#pcc8c02a10c)" d="M 334.575412 211.404791 
L 335.179436 213.438324 
L 336.128616 215.681366 
L 337.768109 219.047164 
L 338.631 220.224157 
L 340.097914 222.001042 
L 340.486215 223.046358 
L 341.219673 225.953653 
L 341.866841 228.124212 
L 342.772876 230.334692 
L 344.843815 234.645823 
L 346.31073 236.835058 
L 347.001042 238.809154 
L 347.950222 241.566867 
L 350.452606 246.208293 
L 351.142919 246.933608 
L 351.660654 247.602086 
L 352.178388 248.755524 
L 353.041279 250.646712 
L 354.335616 252.625733 
L 355.198507 253.65255 
L 356.751711 255.330733 
L 359.426673 258.943774 
L 361.842767 261.029326 
L 363.48226 263.12632 
L 364.43144 263.880705 
L 366.157222 265.065009 
L 367.624137 266.368163 
L 368.918473 267.179073 
L 371.334568 268.596562 
L 372.887772 269.575964 
L 375.99418 271.10723 
L 377.115938 271.648102 
L 379.618322 272.642701 
L 381.257815 273.409503 
L 384.795668 274.729963 
L 387.039184 275.485965 
L 398.170478 278.710785 
L 404.210715 280.169922 
L 404.987317 280.17226 
L 405.763919 280.448748 
L 407.058255 280.976927 
L 408.007435 281.04686 
L 408.870326 281.153369 
L 410.941265 281.668132 
L 411.890445 281.714346 
L 413.27107 282.205579 
L 414.22025 282.376289 
L 415.514587 282.617652 
L 418.448416 283.200958 
L 422.417715 284.030811 
L 436.914283 287.615826 
L 444.718189 289.724906 
L 446.408418 290.086667 
L 447.905549 290.462001 
L 449.530575 290.809909 
L 451.027706 291.142558 
L 452.850846 291.523192 
L 454.671478 291.852746 
L 456.361706 292.263987 
L 457.59803 292.531554 
L 458.769153 292.773676 
L 460.005477 293.116634 
L 462.024222 293.502706 
L 463.779652 293.791876 
L 468.920554 294.738599 
L 475.490878 295.804568 
L 479.588553 296.434221 
L 481.020482 296.649052 
L 482.582815 296.899879 
L 485.118158 297.310931 
L 485.704973 297.34024 
L 486.030981 297.478466 
L 487.72121 297.686131 
L 490.585068 298.131456 
L 490.973771 297.458022 
L 491.038972 297.507833 
L 491.625788 298.502586 
L 492.079692 298.490392 
L 492.731708 298.564143 
L 493.250814 298.631705 
L 494.55234 298.873744 
L 496.764182 299.177799 
L 497.09019 298.820135 
L 497.285795 299.059124 
L 497.611804 299.48614 
L 499.693242 299.735539 
L 508.214601 300.719181 
L 512.768688 301.197668 
L 513.159898 301.117069 
L 513.61631 301.422995 
L 514.135416 301.454008 
L 514.331021 301.259111 
L 514.65703 300.863144 
L 514.852635 301.092612 
L 515.176135 301.505957 
L 515.306539 301.449247 
L 515.567345 301.226332 
L 515.828152 301.32153 
L 516.738468 301.775819 
L 522.528879 302.420616 
L 522.985291 302.342984 
L 523.178388 302.440903 
L 523.373994 302.033572 
L 523.569599 301.724487 
L 523.700002 301.89108 
L 524.153906 302.964666 
L 524.284309 302.919824 
L 524.740721 302.163171 
L 524.805923 302.229675 
L 525.06673 302.58194 
L 525.39023 302.024907 
L 525.585835 302.54914 
L 525.846642 303.190506 
L 526.172651 302.759964 
L 526.433457 302.715952 
L 526.756958 302.510094 
L 526.952563 302.821586 
L 527.278571 303.379734 
L 527.474177 303.390715 
L 527.928081 303.089569 
L 528.188887 303.318687 
L 528.319291 303.102102 
L 528.580097 302.466598 
L 528.580097 302.466598 
" style="fill:none;stroke:#1f77b4;stroke-linecap:square;stroke-width:1.5;"/>
   </g>
   <g id="line2d_31">
    <path clip-path="url(#pcc8c02a10c)" d="M 334.575412 210.838903 
L 335.869749 215.372504 
L 336.64635 217.212262 
L 337.379808 218.409732 
L 338.544711 219.77248 
L 339.407602 220.945969 
L 340.05477 222.240903 
L 340.701938 224.074888 
L 342.859166 230.641445 
L 343.894635 232.810045 
L 345.404694 235.3844 
L 346.397019 237.233627 
L 347.173621 239.163075 
L 348.899403 243.667618 
L 349.676004 244.918943 
L 351.401786 247.395355 
L 354.163038 252.2961 
L 356.233976 254.916633 
L 359.771829 259.115123 
L 362.360502 261.838942 
L 364.690308 263.973228 
L 367.106402 265.87885 
L 369.781364 267.695807 
L 372.715194 269.40865 
L 376.080469 271.105821 
L 380.136056 272.896261 
L 384.5368 274.589689 
L 389.455279 276.238586 
L 395.409227 277.99047 
L 401.535753 279.568411 
L 408.611459 281.135526 
L 430.598541 285.896038 
L 440.552448 288.32126 
L 450.246666 290.630313 
L 467.746683 294.412691 
L 475.74914 295.814028 
L 486.765453 297.737645 
L 495.678353 299.360815 
L 503.225586 300.43133 
L 531.071245 304.067761 
L 535.884659 304.503919 
L 535.884659 304.503919 
" style="fill:none;stroke:#ff7f0e;stroke-linecap:square;stroke-width:1.5;"/>
   </g>
   <g id="patch_8">
    <path d="M 42.055367 388.777187 
L 42.055367 206.155652 
" style="fill:none;stroke:#000000;stroke-linecap:square;stroke-linejoin:miter;stroke-width:0.8;"/>
   </g>
   <g id="patch_9">
    <path d="M 561.6 388.777187 
L 561.6 206.155652 
" style="fill:none;stroke:#000000;stroke-linecap:square;stroke-linejoin:miter;stroke-width:0.8;"/>
   </g>
   <g id="patch_10">
    <path d="M 42.055367 388.777187 
L 561.6 388.777187 
" style="fill:none;stroke:#000000;stroke-linecap:square;stroke-linejoin:miter;stroke-width:0.8;"/>
   </g>
   <g id="patch_11">
    <path d="M 42.055367 206.155652 
L 561.6 206.155652 
" style="fill:none;stroke:#000000;stroke-linecap:square;stroke-linejoin:miter;stroke-width:0.8;"/>
   </g>
   <g id="legend_2">
    <g id="line2d_32">
     <path d="M 51.055367 289.100354 
L 71.055367 289.100354 
" style="fill:none;stroke:#1f77b4;stroke-linecap:square;stroke-width:1.5;"/>
    </g>
    <g id="line2d_33"/>
    <g id="text_24">
     <!-- $\chi = 1.0$,\ \ $a_i = 0.8\ R_{\mathrm{RLOF}}$ -->
     <g transform="translate(79.055367 292.600354)scale(0.1 -0.1)">
      <use transform="scale(0.996264)" xlink:href="#Standard_Symbols_L-99"/>
      <use transform="translate(85.102649 0)scale(0.996264)" xlink:href="#CMR10-61"/>
      <use transform="translate(184.650502 0)scale(0.996264)" xlink:href="#Nimbus_Roman_No9_L_Regular-49"/>
      <use transform="translate(234.463702 0)scale(0.996264)" xlink:href="#CMMI10-58"/>
      <use transform="translate(262.059209 0)scale(0.996264)" xlink:href="#Nimbus_Roman_No9_L_Regular-48"/>
      <use transform="translate(311.87241 0)scale(0.996264)" xlink:href="#Nimbus_Roman_No9_L_Regular-44"/>
      <use transform="translate(386.59221 0)scale(0.996264)" xlink:href="#Nimbus_Roman_No9_L_Regular_Italic-97"/>
      <use transform="translate(436.405411 -14.943915)scale(0.737241)" xlink:href="#Nimbus_Roman_No9_L_Regular_Italic-105"/>
      <use transform="translate(479.537261 0)scale(0.996264)" xlink:href="#CMR10-61"/>
      <use transform="translate(579.085114 0)scale(0.996264)" xlink:href="#Nimbus_Roman_No9_L_Regular-48"/>
      <use transform="translate(628.898315 0)scale(0.996264)" xlink:href="#CMMI10-58"/>
      <use transform="translate(656.493821 0)scale(0.996264)" xlink:href="#Nimbus_Roman_No9_L_Regular-56"/>
      <use transform="translate(731.213622 0)scale(0.996264)" xlink:href="#Nimbus_Roman_No9_L_Regular_Italic-82"/>
      <use transform="translate(792.085253 -15.050129)scale(0.737241)" xlink:href="#Nimbus_Roman_No9_L_Regular-82"/>
      <use transform="translate(841.258641 -15.050129)scale(0.737241)" xlink:href="#Nimbus_Roman_No9_L_Regular-76"/>
      <use transform="translate(886.303985 -15.050129)scale(0.737241)" xlink:href="#Nimbus_Roman_No9_L_Regular-79"/>
      <use transform="translate(939.53257 -15.050129)scale(0.737241)" xlink:href="#Nimbus_Roman_No9_L_Regular-70"/>
     </g>
    </g>
    <g id="line2d_34">
     <path d="M 51.055367 303.46642 
L 71.055367 303.46642 
" style="fill:none;stroke:#ff7f0e;stroke-linecap:square;stroke-width:1.5;"/>
    </g>
    <g id="line2d_35"/>
    <g id="text_25">
     <!-- $\chi = 1.0$,\ \ $a_i = 0.8\ R_{\mathrm{RLOF}}$ -->
     <g transform="translate(79.055367 306.96642)scale(0.1 -0.1)">
      <use transform="scale(0.996264)" xlink:href="#Standard_Symbols_L-99"/>
      <use transform="translate(85.102649 0)scale(0.996264)" xlink:href="#CMR10-61"/>
      <use transform="translate(184.650502 0)scale(0.996264)" xlink:href="#Nimbus_Roman_No9_L_Regular-49"/>
      <use transform="translate(234.463702 0)scale(0.996264)" xlink:href="#CMMI10-58"/>
      <use transform="translate(262.059209 0)scale(0.996264)" xlink:href="#Nimbus_Roman_No9_L_Regular-48"/>
      <use transform="translate(311.87241 0)scale(0.996264)" xlink:href="#Nimbus_Roman_No9_L_Regular-44"/>
      <use transform="translate(386.59221 0)scale(0.996264)" xlink:href="#Nimbus_Roman_No9_L_Regular_Italic-97"/>
      <use transform="translate(436.405411 -14.943915)scale(0.737241)" xlink:href="#Nimbus_Roman_No9_L_Regular_Italic-105"/>
      <use transform="translate(479.537261 0)scale(0.996264)" xlink:href="#CMR10-61"/>
      <use transform="translate(579.085114 0)scale(0.996264)" xlink:href="#Nimbus_Roman_No9_L_Regular-48"/>
      <use transform="translate(628.898315 0)scale(0.996264)" xlink:href="#CMMI10-58"/>
      <use transform="translate(656.493821 0)scale(0.996264)" xlink:href="#Nimbus_Roman_No9_L_Regular-56"/>
      <use transform="translate(731.213622 0)scale(0.996264)" xlink:href="#Nimbus_Roman_No9_L_Regular_Italic-82"/>
      <use transform="translate(792.085253 -15.050129)scale(0.737241)" xlink:href="#Nimbus_Roman_No9_L_Regular-82"/>
      <use transform="translate(841.258641 -15.050129)scale(0.737241)" xlink:href="#Nimbus_Roman_No9_L_Regular-76"/>
      <use transform="translate(886.303985 -15.050129)scale(0.737241)" xlink:href="#Nimbus_Roman_No9_L_Regular-79"/>
      <use transform="translate(939.53257 -15.050129)scale(0.737241)" xlink:href="#Nimbus_Roman_No9_L_Regular-70"/>
     </g>
    </g>
   </g>
  </g>
 </g>
 <defs>
  <clipPath id="pec84e48827">
   <rect height="182.621535" width="519.544633" x="42.055367" y="7.2"/>
  </clipPath>
  <clipPath id="pcc8c02a10c">
   <rect height="182.621535" width="519.544633" x="42.055367" y="206.155652"/>
  </clipPath>
 </defs>
</svg>
